<?xml version="1.0" encoding="utf-8"?>
<!-- Generator: Adobe Illustrator 23.0.2, SVG Export Plug-In . SVG Version: 6.00 Build 0)  -->
<svg version="1.1" id="Layer_1" xmlns="http://www.w3.org/2000/svg" xmlns:xlink="http://www.w3.org/1999/xlink" x="0px" y="0px"
	 viewBox="0 0 450 450" style="enable-background:new 0 0 450 450;" xml:space="preserve">
<style type="text/css">
	.st0{display:none;}
	.st1{display:inline;}
	.st2{fill:#AAAAAA;}
	.st3{fill:#717072;}
	.st4{fill:#034F87;}
	.st5{fill:#1980BF;}
	.st6{fill:#D33105;}
	.st7{fill:#E5C0A8;}
	.st8{fill:#7F3724;}
	.st9{fill:#D8AD8F;}
	.st10{fill:#300901;}
	.st11{fill:#E26100;}
	.st12{display:inline;fill:#717072;}
	.st13{display:inline;fill:#7F3724;}
	.st14{display:inline;fill:#491902;}
	.st15{display:inline;fill:#A96864;}
	.st16{fill:#B7B7B7;}
	.st17{display:inline;fill:#1FB2A7;}
	.st18{fill:#05776F;}
	.st19{fill:#D8D8D8;}
	.st20{display:inline;fill:#034F87;}
	.st21{fill:#FFFFFF;}
	.st22{display:inline;fill:#D8AD8F;}
	.st23{display:inline;fill:#1980BF;}
	.st24{display:inline;fill:#AAAAAA;}
	.st25{fill:#1FB2A7;}
	.st26{fill:#7F3B32;}
	.st27{display:inline;fill:#E5C0A8;}
	.st28{display:inline;fill:#250700;}
	.st29{display:inline;fill:#05776F;}
	.st30{fill:#491902;}
	.st31{display:inline;fill:#D33105;}
	.st32{display:inline;fill:#FFFFFF;}
	.st33{fill:#EACCB7;}
</style>
<g class="st0">
	<g class="st1">
		<g>
			<path class="st2" d="M382.07,417.19c0,1.39,3.35,3.99,6.22,5.59c1.82,1.01,1.55,2.17,1.55,3.1c0,0.93-1.71,2.17-4.18,1.7
				c-2.48-0.46-8.12-2.32-9.36-2.94c-1.24-0.62,0.31-6.5,0.31-6.5L382.07,417.19z"/>
			<g>
				<g>
					<g>
						<path class="st3" d="M389.82,425.9c0-0.93,0.27-2.09-1.55-3.1c-2.78-1.54-6-4.02-6.2-5.45l-0.62-0.04l-3.55,0.54
							c-1.12,2.07,5.53,4.88,6.7,5.83c0.68,0.54,1.12,2.17,0.69,3.85c0.12,0.03,0.24,0.05,0.34,0.07
							C388.11,428.06,389.82,426.82,389.82,425.9z"/>
					</g>
				</g>
			</g>
		</g>
		<path class="st3" d="M399.39,411.72c0.16,1.27,1.59,3.99,4.6,5.5c1.71,0.86,1.78,2.63,1.78,2.63c0.11,0.84-1.29,2.17-3.6,2.05
			c-2.31-0.13-6.16-2.02-7.36-2.44c-1.2-0.42-0.49-5.96-0.49-5.96L399.39,411.72z"/>
		<path class="st4" d="M400.91,369.74c0,3.19,0,39.65,0.37,44.22c0.01,0.17-0.17,0.39-0.43,0.37c-3.3,0.21-6.75,0.21-6.75,0.21
			s-5.99-28.7-5.99-32.42c0-3.71,2.27-16.72,2.27-16.72L400.91,369.74z"/>
		<path class="st5" d="M377.17,362.1c0,2.45-2.83,41.17-1.5,56.81c0.02,0.18-0.06,0.63,0.79,0.63l7.31-0.05c0,0,8.1-37.11,9.6-45.27
			c1.5-8.16-0.52-12.95-0.52-12.95L377.17,362.1z"/>
		<g>
			<g>
				<g>
					<path class="st4" d="M393.59,374.22c0.71-3.85,0.63-6.94,0.35-9.15c-2.37,0.6-5.27,2.42-5.78,3.94
						c-0.8,2.4-5.75,43.56-6.68,50.5l2.5-0.02C383.99,419.49,392.09,382.37,393.59,374.22z"/>
				</g>
			</g>
		</g>
		<path class="st6" d="M376.57,368.69c0-12.34-3.39-28.43-3.34-32.81c0.05-4.85,11.18-6.9,13.35-7.62
			c2.17-0.72,3.92,11.75,5.05,17.63c1.14,5.89-0.12,21.62-2.29,22.34C387.17,368.96,376.57,368.69,376.57,368.69z"/>
		<g>
			<path class="st7" d="M391.05,321.99c0.83,4.66-0.99,8.89-4.07,9.44c-3.08,0.55-6.86-2.26-7.69-6.92
				c-0.84-4.66-2.9-8.95,3.78-10.34C389.61,312.81,390.22,317.33,391.05,321.99z"/>
			<path class="st8" d="M380.21,313.69c-1.55,0.71-3.67,3.27-3,6.64c0.67,3.37,1.03,3.48,1.03,3.48l0.91-1.09c0,0-0.58-3,0.68-4.74
				c1.26-1.74,3.19-1.64,3.19-1.64L380.21,313.69z"/>
			<path class="st7" d="M378.97,322.87c-0.57,0.19-1.55,1.43-0.25,3.15c1.51,2.02,1.99,0.79,1.99,0.79L378.97,322.87z"/>
			<path class="st9" d="M389.88,320.2c0.58-0.15,2.07,0.38,1.9,2.53c-0.2,2.51-1.26,1.73-1.26,1.73L389.88,320.2z"/>
			<g>
				<path class="st9" d="M391,322c-0.82-4.58-1.43-9.02-7.65-7.88c-0.26,0.48-0.4,0.82-0.4,0.82l4.39,16.41
					C390.18,330.5,391.81,326.45,391,322z"/>
			</g>
			<path class="st10" d="M383.79,312.9c3.39-0.81,7,1.08,7.5,4.49c0.5,3.4,0.2,3.62,0.2,3.62l-1.22-0.72c0,0-0.46-3.02-2.23-4.23
				c-1.77-1.21-4.47,0.17-4.47,0.17L383.79,312.9z"/>
			<path class="st11" d="M377.09,319.46c0.77-0.76,4.62-4.86,13.66-4.1c-1.34-3.97-1.91-5.57-3.4-6.18c-2.63-1.07-7.83,0-10.27,2.46
				C375.89,312.85,377.09,319.46,377.09,319.46z"/>
			<g>
				<path class="st6" d="M390.77,315.38c-1.35-3.97-1.91-5.58-3.4-6.18c-1.46-0.6-3.73-0.53-5.87,0.08l1.96,6.64
					C385.39,315.41,387.8,315.13,390.77,315.38z"/>
			</g>
			<path class="st11" d="M377.09,319.46c0.83-0.57,7.89-3.97,13.92-3.59c0.14-0.05-0.26-0.51-0.26-0.51s-1.02-1.62-7.54-0.01
				C376.6,316.98,377.09,319.46,377.09,319.46z"/>
		</g>
		<g>
			<polygon class="st2" points="403.03,349.08 386.56,352.17 384.77,330.12 400.96,322.64 			"/>
			<polygon class="st3" points="400.96,322.64 418.67,324.81 420.64,348.42 402.65,349.18 			"/>
		</g>
		<polygon class="st2" points="399.11,348.73 401.4,375.86 383.85,373.8 381.71,351.78 		"/>
		<polygon class="st3" points="401.2,375.84 421.25,372.69 419.29,348.26 399.11,348.73 		"/>
		<path class="st7" d="M389.32,366.07c0.73,0.73,1.91,1.6,2.57,2.13c0.67,0.53,1.78,1.95,2.44,2.53c0.31,0.27,0.64,1.13-0.49,0.73
			c-1.13-0.4-1.78-0.91-1.78-0.91s0.04,0.75,0.45,1.95c0.4,1.2,3.02,2.13,2.6,2.75c-0.23,0.33-1.75,0.36-3.62,0.09
			c-1.86-0.27-2.71-1.89-3.37-4.62c-0.66-2.73-1.2-3.59-1.2-3.59L389.32,366.07z"/>
		<path class="st11" d="M377.79,332.99c-2.01-0.44-4.95-1.24-5.16,5.78c-0.21,7.02,2.47,16.31,3.92,18.99
			c1.45,2.68,9.7,12.59,10.94,12.59c0.09,0.19,3.51-3.3,3.51-3.3s-6.2-13.62-7.43-16.1c-1.24-2.48-2.62-13.97-3.3-15.48
			C379.34,333.4,377.79,332.99,377.79,332.99z"/>
		<g>
			<g>
				<g>
					<path class="st5" d="M395.76,414.55l-4.35-30.2l-1.68,8.46c1.77,9.49,4.33,21.76,4.33,21.76S394.48,414.58,395.76,414.55z"/>
				</g>
			</g>
		</g>
	</g>
	<g class="st1">
		<polygon class="st2" points="418.77,341.42 416.16,338.94 413.93,341.56 415.45,341.51 415.82,346.43 417.92,346.34 
			417.35,341.46 		"/>
		<polygon class="st2" points="414.42,343.48 412.8,341.94 411.41,343.57 412.35,343.54 412.59,346.6 413.89,346.54 413.54,343.5 		
			"/>
	</g>
	<g class="st1">
		<g>
			<g>
				<polygon class="st2" points="419.22,366.07 416.73,363.55 414.5,366.33 416.05,366.25 416.45,371.51 418.49,371.22 
					417.9,366.14 				"/>
			</g>
		</g>
	</g>
</g>
<g class="st0">
	<path class="st12" d="M165.23,95.2c0,0.25-0.2,0.45-0.45,0.45h-27.01c-0.25,0-0.45-0.2-0.45-0.45V68.19c0-0.25,0.2-0.45,0.45-0.45
		h27.01c0.25,0,0.45,0.2,0.45,0.45V95.2z"/>
	<path class="st13" d="M183.15,88.41c0,1.49-1.45,2.69-3.23,2.69h-17.77c-1.78,0-3.23-1.21-3.23-2.69v-0.23
		c0-1.49,1.45-2.69,3.23-2.69h17.77c1.78,0,3.23,1.21,3.23,2.69V88.41z"/>
	<path class="st14" d="M205.01,70.19c1.06-0.76,1.74-0.35,1.74-0.35c-1.35,1.14,0.81,5.29,3.5,8.17c3.2,3.42,12.39,8.98,12.56,20.46
		c-5.12,0.54-10.77,2.6-14.36,7.45c-3.68,4.96-4.58,7.94-7.4,8.21c-9.08,0.86-21.97,0.66-22.62-0.94
		c-4.98-12.25-15.85-13.29-23.29-9.83c-7.9,3.68-8.01,10.85-9.69,10.91c-1.48,0.04-6.28,0-6.28,0s1.67-10.61,6.46-16.87
		c5.56-7.27,15.62-6.46,15.62-6.46h18.13c0,0-4.32,6.26-1.08,12.21c2.15,3.95,10.05,6.79,15.62,7c4.85,0.18,14.18-2.69,12.03-22.8
		c-0.58-5.4-5.74-10.05-4.31-13.28C202.39,72.35,203.83,71.04,205.01,70.19z"/>
	<path class="st15" d="M207.64,65.62c0.62,0.29,0.82,1.09,0.41,1.79l-4.17,8.71c-0.44,0.76-1.87,1.99-3.01,0.76l0,0
		c-0.48-0.52-0.67-1.55-0.26-2.23l5.27-8.36C206.26,65.64,207.04,65.34,207.64,65.62L207.64,65.62z"/>
	<g class="st1">
		<path class="st9" d="M182.62,55.83c0.95-2.76,3.96-4.74,3.96-4.74l-5.6-4.13c0,0-0.86,2.84-4.48,5.43
			C175.8,52.89,182.62,55.83,182.62,55.83z"/>
		<path class="st7" d="M189.6,38.71c-2.06-3.25-11.08-3.81-11.2,2.05c-0.23,10.67,6.48,11.25,6.48,11.25
			c2.2-0.33,2.78-0.15,4.29-0.97c0.74-0.4,1.27-1.63,1.55-3.19c0.67-0.24,1.38-0.58,1.23-1.07c-0.44-0.62-0.75-1.15-0.99-1.61
			C191,42.78,190.56,40.23,189.6,38.71z"/>
		<path class="st9" d="M188.73,37.14c-2.99-0.23-10.32,0.23-10.46,3.66c-0.4,10.3,6.48,11.25,6.48,11.25
			c0.25-0.04,2.39-0.31,2.61-0.34C184.07,48.11,186.57,39.5,188.73,37.14z"/>
		<path class="st8" d="M180.4,38.16c0.66-1.1,0.7-2.16,3.49-2.24c2.71-0.07,3.73-0.41,5.57,1.37c0.93,0.91,0.96,2.93,0.96,2.93
			s-1.05-0.17-1.69,0.03c-0.64,0.2-1.53-0.14-2.35,1.09c-0.69,1.04-0.85,2.22-0.85,2.22s-2.72,1.11-2.75,2.01
			c-0.02,0.91-3.1,3.97-3.1,3.97s-1.19-3.96-1.75-5.99C176.63,38.82,180.25,38.42,180.4,38.16z"/>
		<g>
			<path class="st3" d="M194.41,36.92c0.54,0.06,1.79,0.7,1.16,2.05c-0.63,1.35-1.35,1.15-2.57,1.31c-1.91,0.26-3.59,0.17-3.59,0.17
				L194.41,36.92z"/>
			<path class="st2" d="M178.97,47.49c0.79-0.72,5.13-5.11,5.13-5.11s4.54,0.23,5.95-0.76c1.42-0.99,2.34-4.41,4.9-4.64
				c-3.23-0.03-4.59,0.36-4.59,0.36s-1.88-2.3-5.86-2.31c-1.71,0-4.26,1.03-5.04,1.97c-0.78,0.93-2.93,2.61-2.45,5.58
				C177.51,45.54,178.97,47.49,178.97,47.49z"/>
		</g>
		<path class="st9" d="M184.13,44.28c-0.46-0.4-0.84-1.04-1.37-0.5c-0.54,0.54-1.11,3.17-0.03,3.95
			C183.81,48.51,184.13,44.28,184.13,44.28z"/>
	</g>
	<g class="st1">
		<path class="st3" d="M236.5,118.6c0,7.16-5.81,12.97-12.97,12.97c-7.16,0-12.97-5.81-12.97-12.97c0-7.16,5.81-12.97,12.97-12.97
			C230.7,105.64,236.5,111.44,236.5,118.6z"/>
		<path class="st16" d="M230,118.6c0,3.57-2.89,6.46-6.46,6.46c-3.57,0-6.46-2.89-6.46-6.46c0-3.57,2.89-6.46,6.46-6.46
			C227.1,112.14,230,115.04,230,118.6z"/>
	</g>
	<path class="st13" d="M205.52,114.32h5.86c0,0,0.99-3.33,3.74-5.73c2.85-2.48,11.51-5.77,18.65,2.13c2.84,1.82,3.46-1.73,3.46-1.73
		s-3.8-9.85-15.9-8.88C209.07,101.08,205.52,114.32,205.52,114.32z"/>
	<g class="st1">
		<path class="st9" d="M193.9,98.3l-1.03,5.64l5.58,3.77c0,0,2.4,2.54-1.62,1.57c-5.01-1.21-5.93,0.13-7.89-0.41
			c-1.59-0.43-1.35-1.5-0.78-3.16c0.58-1.65,1.58-7.34,1.58-7.34L193.9,98.3z"/>
		<g>
			<g>
				<g>
					<path class="st3" d="M200.42,108.07c0.43,0.74-1.46,2.32-4.35,1.53c-4.32-1.19-6.12,0.08-7.43-0.53
						c-1.65-0.77-1.07-1.89-0.39-3.79c0.08-0.22,9.93,2.17,9.93,2.17S199.99,107.33,200.42,108.07z"/>
				</g>
			</g>
		</g>
	</g>
	<path class="st17" d="M176.59,76.69c1.48,0.26,20.38,4.54,21.01,4.74c1.41,0.45,1.54,2.06,1.48,2.7
		c-0.07,0.64-4.02,19.36-4.02,19.36l-5.27-0.63c0,0-0.54-5.95,1.32-15.37c0,0-26.21,0.64-26.21-2.77
		C164.89,81.31,176.59,76.69,176.59,76.69z"/>
	<g class="st1">
		<g>
			<g>
				<path class="st18" d="M190.55,88.28c0,0-25.76-0.21-25.76-3.61c0-0.9-0.11-2.32,0.92-3.46c1.4-1.54,4.24-2.8,6.21-3.75
					c5.37,0.86,18.92,3.42,23.87,5.09c0.71,0.24,1.1,1.09,1.21,1.41c0.47,1.41-2.86,15.51-3.23,19.39l-6.06-0.67
					C187.72,102.69,188.69,97.71,190.55,88.28z"/>
			</g>
		</g>
	</g>
	<g class="st1">
		<path class="st9" d="M197.37,66.79c1.1-0.09,3.19,0.06,3.62,0.06c0.44,0.01,3.95-1.1,4.38-0.99c0.44,0.12,2.04,1.57,2.61,2.07
			c0,0,0.78,1.55-0.62,0.91c-2.91-1.32-3.23-0.08-4.33,0.12c-1.1,0.2-1.76-0.03-2.2-0.04c-0.44-0.01-3.07,0.06-3.07,0.06
			L197.37,66.79z"/>
		<polygon class="st19" points="199.01,66.13 200.36,66.25 200.53,70.21 199.08,70.28 		"/>
		<path class="st5" d="M183.04,54.71c1.17,1.83,3.46,8.66,4.31,9.46c1.94,1.82,12.09,1.73,12.09,1.73l-0.09,5.25
			c0,0-12.32,0.2-15.44-1.15c-2.04-0.88-8-11.97-6.85-15.44C177.78,52.4,183.04,54.71,183.04,54.71z"/>
	</g>
	<path class="st20" d="M170.31,59.24c2.02-5.82,6.81-7.75,7.27-7.81l5.92,3.5c1.79,8.53-1.05,14.98-2.24,17.14
		c-0.64,2.72-1.09,4.58-1.44,5.83c-1-0.45-14.99,5.65-14.99,5.65s0.64-7.77,2.08-11.98C168.25,67.69,168.24,65.21,170.31,59.24z"/>
	<path class="st14" d="M216.71,71.99c0,2.78,0.66,5.03-2.51,5.03c-3.17,0-5.74-2.25-5.74-5.03c0-2.78,2.57-5.03,5.74-5.03
		C217.37,66.96,216.71,69.21,216.71,71.99z"/>
	<g class="st1">
		<g>
			<path class="st3" d="M175.65,118.6c0,7.16-5.8,12.97-12.97,12.97c-7.16,0-12.97-5.81-12.97-12.97c0-7.16,5.81-12.97,12.97-12.97
				C169.85,105.64,175.65,111.44,175.65,118.6z"/>
			<path class="st16" d="M169.14,118.6c0,3.57-2.89,6.46-6.46,6.46c-3.57,0-6.46-2.89-6.46-6.46c0-3.57,2.89-6.46,6.46-6.46
				C166.25,112.14,169.14,115.04,169.14,118.6z"/>
		</g>
		<path class="st8" d="M144.67,114.32h5.86c0,0,1.06-3.25,3.8-5.64c2.85-2.48,13.73-7,20.46,4.98c2.84,1.82,4.98,0.07,4.98,0.07
			s-4.58-15.21-19.3-13.62C148.26,101.42,144.67,114.32,144.67,114.32z"/>
	</g>
	<g class="st1">
		<path class="st7" d="M194.2,71.03c1.29,0.07,3.68,0.57,4.19,0.65c0.51,0.08,4.29-1.4,4.78-1.19c0.49,0.2,2.31,2,3.12,2.65
			c0,0,0.09,1.37-1.51,0.55c-2.53-1.3-3.45,0.44-4.76,0.5c-1.31,0.06-1.62-0.03-2.13-0.1c-0.51-0.08-3.58-0.42-3.58-0.42
			L194.2,71.03z"/>
		<polygon class="st21" points="195.21,70.81 196.53,71.11 196.16,75.05 194.72,74.93 		"/>
		<path class="st5" d="M179.11,56.01c0.98,2.1,2.93,9.97,3.71,10.94c1.78,2.2,12.53,3.34,12.53,3.34l-0.46,5.52
			c0,0-13.44-1.32-16.54-3.2c-2.02-1.22-6.39-13.22-4.68-16.72C175.58,51.96,179.11,56.01,179.11,56.01z"/>
	</g>
</g>
<g class="st0">
	<path class="st22" d="M358.96,52.53c1.5,1.66,7.64,10.89,8.66,11.47c1.03,0.58,7.55,3.02,9.61,3.92c1.85-0.04,3.87-0.12,3.87-0.12
		s1.41,0.97,2.15,2.06c0.74,1.09,0.01,2.37-1.36,3.36c0,0-3.09-1.48-3.31-2.28c-0.22-0.8-4.98-0.52-6.56-0.6
		c-1.58-0.08-9.05-3.37-10.53-5.55C360.02,62.6,358.96,52.53,358.96,52.53z"/>
	<path class="st12" d="M359.74,52.38c1.25,1.38,6.25,8.43,6.25,8.43s-0.56,1.66-1.85,2.49c-1.29,0.83-3.87-6.18-3.87-6.18
		L359.74,52.38z"/>
	<g class="st1">
		<path class="st9" d="M357.83,52.3c1.01-2.95,2.53-6.45,2.53-6.45l-7.32-4.11c0,0,1.52,3.69-1.38,8.57
			C351.18,51.1,357.83,52.3,357.83,52.3z"/>
		<path class="st9" d="M363.58,32.59c-2.21-3.48-11.86-4.08-12,2.2c-0.25,11.43,6.94,12.04,6.94,12.04c2.35-0.35,2.98-0.17,4.6-1.04
			c0.79-0.43,1.36-1.74,1.66-3.41c0.72-0.26,1.47-0.62,1.32-1.14c-0.47-0.67-0.8-1.23-1.06-1.72
			C365.08,36.95,364.62,34.22,363.58,32.59z"/>
		<path class="st7" d="M362.66,30.91c-3.2-0.24-11.06,0.24-11.2,3.92c-0.43,11.03,6.94,12.04,6.94,12.04
			c0.27-0.04,2.56-0.33,2.79-0.37C357.67,42.66,360.34,33.43,362.66,30.91z"/>
		<path class="st8" d="M353.74,32c0.71-1.18,0.75-2.32,3.74-2.4c2.9-0.08,4-0.44,5.96,1.47c1,0.98,1.03,3.13,1.03,3.13
			s-1.12-0.18-1.81,0.03c-0.68,0.21-1.64-0.15-2.51,1.17c-0.74,1.11-0.91,2.38-0.91,2.38s-2.92,1.18-2.94,2.16
			c-0.02,0.97-3.12,3.91-3.12,3.91s-1.47-3.91-2.07-6.08C349.7,32.7,353.57,32.28,353.74,32z"/>
		<g>
			<path class="st8" d="M368.52,30.74c1.24-0.24,2.13,0.68,1.46,2.12c-0.67,1.44-1.44,1.23-2.75,1.4c-2.04,0.28-3.84,0.18-3.84,0.18
				L368.52,30.74z"/>
			<path class="st11" d="M352.21,41.99c0.85-0.77,5.49-5.47,5.49-5.47s4.86,0.25,6.38-0.81c1.52-1.06,2.51-4.72,5.25-4.97
				c-3.46-0.03-4.92,0.39-4.92,0.39s-2.01-2.47-6.27-2.48c-1.84,0-4.56,1.11-5.39,2.11c-0.83,1-3.14,2.8-2.62,5.97
				C350.64,39.9,352.21,41.99,352.21,41.99z"/>
		</g>
		<path class="st7" d="M357.73,38.55c-0.49-0.43-0.89-1.11-1.47-0.53c-0.58,0.58-1.19,3.4-0.03,4.23
			C357.39,43.08,357.73,38.55,357.73,38.55z"/>
		<g>
			<g>
				<g>
					<path class="st6" d="M364.07,35.7c1.52-1.06,2.51-4.72,5.25-4.97c-3.46-0.03-4.92,0.39-4.92,0.39s-2.01-2.47-6.27-2.48
						c-1.13,0-2.6,0.42-3.76,0.98c2.17,1.74,2.92,5.13,1.92,8.31c0.8-0.81,1.4-1.42,1.4-1.42S362.56,36.76,364.07,35.7z"/>
				</g>
			</g>
		</g>
	</g>
	<g class="st1">
		<path class="st3" d="M336.03,116.22c-1.5,0.38-4.01,2.21-3.59,3.46c1.17,3.52,2.35,2.07,4.28,7.33c0.92,2.48,2.91,1.8,4.56,1.94
			c1.68,0.14,2.21-1.52-0.14-3.18c-0.67-0.47-0.37-6.22-0.51-7.05c-1.55,0.11-1.65,0.12-2.12-1.94
			C338.04,114.72,336.03,116.22,336.03,116.22z"/>
	</g>
	<g class="st1">
		<path class="st3" d="M360.71,127.65c0.11,3.39-1.64,5.01,0.08,5.81c1.72,0.8,3.82-0.12,9,0.43c4.75,0.5,3.77-2.21,3.77-2.21
			s-3.78-1.41-7-3.71C366.06,127.6,360.71,127.65,360.71,127.65z"/>
	</g>
	<path class="st20" d="M357.21,76.78c0.84,5.65,5.72,7.02,5.36,11.07c-0.91,10.41-5.66,18.77-7,20.57
		c-1.87,2.51-14.11,13.69-14.11,13.69l-5.72-6.64c0,0,8.49-10.59,11.39-13.63c2.9-3.04,5.57-21.4,5.57-21.4L357.21,76.78z"/>
	<path class="st23" d="M350.24,76.95c-0.29,2.95-1.22,4.61-0.66,9.96c0.3,2.89,6.73,11.43,7.56,21.2
		c0.23,2.68,2.26,20.23,2.26,20.23l9.4-0.18c0,0,0.14-19.31,0.14-22.63c0-3.32-5.2-17.31-4.98-19.54c0.74-7.37,0.46-8.39,0.46-8.39
		L350.24,76.95z"/>
	<path class="st12" d="M352.9,48.74c-0.44,2.35-2.42,3.74-1.52,6.68c0.9,2.94-1.76,13.75-2.24,17.51c-0.47,3.76,0.68,4.89,1.36,5.12
		c0.68,0.23,12.71,2.11,13.55,2.21c1.03,0.13,3.59-1.84-0.96-19.29c-0.39-1.49-0.08-2.55-0.51-3.75c-1.04-2.9-3.79-6.29-4.42-6.43
		C355.94,50.31,352.9,48.74,352.9,48.74z"/>
	<g class="st1">
		<g>
			<g>
				<path class="st2" d="M349.99,56.67c-0.31,3.06-0.5,12.35-0.98,16.11c-0.47,3.76-0.23,4.82,0.45,5.05c0.29,0.1,3.14,0.7,6.05,1.1
					c0.06-2.33-3.18-1.61-0.97-19.5c0.45-3.64-1.1-1.48-1.38-3.96c-0.4-3.62-0.05-4.61,1.75-5.85c-1.71-0.65-2.58-1.24-2.58-1.24
					C351.23,50.17,350.68,49.89,349.99,56.67z"/>
			</g>
		</g>
	</g>
	<path class="st24" d="M351.97,48.83l0.6-1.38c0,0,2.67,2.31,6.08,2.95c0.05,0.78,0,0.97,0,0.97S356.86,51.83,351.97,48.83z"/>
	<g class="st1">
		<polygon class="st8" points="401.22,124.19 408.4,119.14 409.32,120.44 402.14,125.5 401.22,124.19 		"/>
		<g>
			<path class="st3" d="M402.96,124.93c0,3.42-2.77,6.18-6.18,6.18c-3.42,0-6.18-2.77-6.18-6.18c0-3.41,2.77-6.18,6.18-6.18
				C400.19,118.75,402.96,121.52,402.96,124.93z"/>
			<path class="st16" d="M399.85,124.93c0,1.7-1.38,3.08-3.08,3.08c-1.7,0-3.08-1.38-3.08-3.08c0-1.7,1.38-3.08,3.08-3.08
				C398.47,121.85,399.85,123.23,399.85,124.93z"/>
		</g>
		<path class="st8" d="M409.29,121.02c-0.97-0.55-1.84-1.49-2.79-3.08l0,0c-0.94-1.56-6.5-12.03-12.07-22.49l0,0
			c-5.51-10.36-11.08-20.78-11.73-21.78l0,0c-0.33-0.38-0.58-0.47-1.09-0.49l0,0c-1.2-0.06-3.32,1.23-4.17,1.92l0,0
			c-0.29,0.22-0.44,0.35-0.44,0.35l0,0c-0.55,0.48-1.39,0.43-1.88-0.13l0,0c-0.48-0.55-0.43-1.4,0.13-1.88l0,0
			c0.13-0.03,3.02-2.82,6.35-2.93l0,0c1.1-0.02,2.36,0.44,3.19,1.51l0,0c0.2,0.26,0.28,0.42,0.5,0.81l0,0
			c0.21,0.36,0.48,0.86,0.82,1.47l0,0c0.67,1.22,1.57,2.89,2.64,4.88l0,0c2.14,3.98,4.93,9.22,7.75,14.52l0,0
			c5.63,10.58,11.43,21.48,12.26,22.87l0,0c0.83,1.38,1.44,1.92,1.81,2.12l0,0c0.34,0.18,0.56,0.2,1.08,0.2l0,0
			c0.02-0.01,0.05-0.02,0.09-0.03l0,0c0.16-0.05,0.4-0.15,0.69-0.28l0,0c0.59-0.26,1.4-0.64,2.34-1.11l0,0
			c1.88-0.93,4.3-2.17,6.67-3.42l0,0c4.76-2.49,9.36-4.98,9.37-4.99l0,0c0.65-0.35,1.45-0.11,1.8,0.54l0,0
			c0.35,0.64,0.11,1.45-0.54,1.8l0,0c0,0-4.07,2.2-8.51,4.53l0,0c-4.47,2.35-9.2,4.78-10.92,5.42l0,0
			c-0.27,0.08-0.39,0.17-0.87,0.19l0,0c-0.04,0-0.09,0-0.13,0l0,0C411.07,121.56,410.19,121.53,409.29,121.02L409.29,121.02z
			 M382.69,73.66L382.69,73.66C382.69,73.66,382.69,73.66,382.69,73.66L382.69,73.66C382.69,73.66,382.69,73.66,382.69,73.66
			L382.69,73.66z"/>
		<path class="st8" d="M397.15,126.27l-2.75-31.85c-0.05-0.59,0.38-1.1,0.97-1.15l0,0c0.59-0.05,1.1,0.38,1.15,0.97l0,0l2.75,31.85
			c0.05,0.59-0.38,1.1-0.97,1.15l0,0c-0.03,0-0.06,0-0.09,0l0,0C397.67,127.24,397.2,126.82,397.15,126.27L397.15,126.27z"/>
		<path class="st11" d="M432.81,105.68c0.09,0.16,0.03,0.35-0.13,0.44l-20.88,11.39c-0.16,0.08-0.35,0.03-0.44-0.13l-9.23-16.93
			c-0.08-0.15-0.03-0.35,0.13-0.44l20.88-11.39c0.16-0.08,0.35-0.03,0.44,0.13L432.81,105.68z"/>
		<path class="st11" d="M419.41,88.77c0.07,0.13,0.02,0.29-0.11,0.37l-17.62,9.53c-0.13,0.07-0.29,0.02-0.37-0.11l-7.72-14.28
			c-0.07-0.13-0.02-0.3,0.11-0.37l17.62-9.52c0.13-0.07,0.29-0.02,0.37,0.11L419.41,88.77z"/>
		<g>
			<path class="st3" d="M405.31,128.57c0,3.42-2.77,6.18-6.18,6.18c-3.41,0-6.18-2.77-6.18-6.18c0-3.42,2.77-6.18,6.18-6.18
				C402.54,122.39,405.31,125.16,405.31,128.57z"/>
			<path class="st16" d="M402.21,128.57c0,1.7-1.38,3.08-3.08,3.08c-1.7,0-3.08-1.38-3.08-3.08c0-1.7,1.38-3.08,3.08-3.08
				C400.83,125.49,402.21,126.87,402.21,128.57z"/>
		</g>
	</g>
	<g class="st1">
		<path class="st7" d="M357.14,53.31l9.34,12.38l8.09,3.59c0,0,3.42,0.34,5,0.37c1.58,0.03,1.54,1.61,2.57,2.95
			c1.02,1.34-0.6,3.41-1.65,3.39c-1.05-0.02-1-2.39-2.32-2.42c-1.32-0.03-3.15-0.59-3.94-0.61C373.44,72.94,364,70.9,364,70.9
			l-8.75-9.67l1.07-8.68L357.14,53.31z"/>
		<g>
			<path class="st2" d="M352.2,53.33c0.65-1.54,2.42-2.73,4.85-1.69c2.74,1.18,3.91,5.24,8.4,10.32c-0.06,1.81-4.95,5.86-6.5,5.54
				c-1.55-0.32-5.71-7.03-6.23-7.97C352.18,58.59,351.42,55.17,352.2,53.33z"/>
		</g>
	</g>
</g>
<g class="st0">
	<g class="st1">
		<path class="st9" d="M269.36,381.55c0,1.33-0.59,4.58-1.64,8.66c-0.33,1.29-1.27,2.22-1.84,8.68c-0.57,6.45-1.1,7.16-0.53,8.68
			c0.57,1.52,3.63,3.97,4.01,4.73c0.38,0.76,1.15,1.99-0.94,1.8c-2.09-0.19-3.43-1.61-5.7-2.75c-2.28-1.14-1.71-2.09-1.71-5.13
			c0-3.04-0.19-14.05,0.76-18.98C262.72,382.31,269.36,381.55,269.36,381.55z"/>
		<path class="st4" d="M260.97,407.08c0.83,0.66,2.21,2.52,3.53,3.44c1.32,0.92,3.84,2.43,3.84,1.73c0-0.7-0.57-1.75-0.57-1.75
			s1.71,1.66,2.15,2.41c0.44,0.75,0.66,2.37-1.71,1.93c-1.87-0.35-2.06-0.61-4.21-2.19c0,0-1.23-0.48-1.45-0.44
			c-0.22,0.04-1.4-0.35-1.67-1.23C260.62,410.11,260.97,407.08,260.97,407.08z"/>
	</g>
	<g class="st1">
		<path class="st7" d="M264.52,380.3c-0.38,1.52-1.49,8.99-2.28,11.05c-0.2,0.53-1.05,3.03-1.05,7.01c0,3.99-2.86,9.88-3.05,12.16
			c-0.19,2.28-0.19,4.37-0.38,6.64c-0.19,2.28-3.04,5.69-4.18,4.36c-1.14-1.33-1.52-2.28-0.95-4.17c0.57-1.9,1.52-4.18,1.71-6.26
			c0.19-2.09-1.14-7.97,0-14.24c1.14-6.26,0.51-4.44,0.89-6.91c0.38-2.47-0.32-8.09-0.32-8.09L264.52,380.3z"/>
		<path class="st5" d="M253.52,414.45c0.27-0.49-0.13,3.11,1.01,3.46c1.14,0.35,2.8-2.37,3.42-4.12c0.44,4.91-1.05,6.26-2.28,7.5
			c-1.32,1.32-1.89,1.01-2.67,0.13C252.2,420.54,251.5,418.13,253.52,414.45z"/>
	</g>
	<g class="st1">
		<path class="st25" d="M257.4,360.67l12.15-0.76c0,0,1.9,2.28,1.9,8.35c0,6.07-0.38,13.48,0.19,14.62
			c0.57,1.14-4.88,3.21-12.15,3.61c-2.58,0.14-6.45-1.14-6.45-1.14s0.76-5.69,0.38-11.96c-0.57-9.49,1.78-12.81,2.16-14.52
			C255.96,357.16,257.4,360.67,257.4,360.67z"/>
		<g>
			<g>
				<g>
					<path class="st18" d="M259.45,386.48c7.26-0.4,12.72-2.47,12.15-3.61c-0.57-1.14-0.19-8.54-0.19-14.62
						c0-6.07-1.9-8.35-1.9-8.35l-11.08,0.69c-1.13,4.12-1.07,9.89-0.75,13.56c0.36,4.24,0.28,8.68-0.05,12.23
						C258.27,386.47,258.89,386.51,259.45,386.48z"/>
				</g>
			</g>
		</g>
	</g>
	<path class="st14" d="M265.88,327.48c-0.2,1.91-0.13,6.9,0.72,7.82c-0.99,0.99-4.41,0.92-4.41,0.92s-1.71-5.06-1.58-5.46
		C260.75,330.38,265.88,327.48,265.88,327.48z"/>
	<path class="st22" d="M264.71,342.22c0.66,1.03,3.7,5.29,4.46,5.55c0.76,0.25,8.74,3.63,9.79,4.07c1.05,0.45,2.56,1.03,2.56,1.03
		s4.3-0.17,4.36-0.64c0.06-0.47-0.65-0.48-2.02-0.33c0,0,1.4-0.46,1.19-0.64c-0.21-0.18-1.19,0.01-2.24,0.2
		c-0.69,0.12-1.48-0.82-1.92-1.11c0,0,0.69-0.47,1.11-0.65c0.42-0.18,0.95-0.67,0.84-1c-0.11-0.33-0.52-0.3-1.2,0.09
		c-0.68,0.39-1.13,0.18-2.01,0.22c-0.72,0.04-0.75,0.3-1.3,0.23c-0.54-0.07-5.65-2.92-6.42-3.73c-0.77-0.81-2.87-4.95-3.17-5.07
		C268.43,340.31,264.71,342.22,264.71,342.22z"/>
	<g class="st1">
		<path class="st9" d="M307.26,349.43l-0.88,2.73c0,0-7.03-0.58-11.77-1.8c-2.78,0.13-8.44-1.01-8.44-1.01l-2.8,0.88
			c0,0,4.24,2.1,6.84,2.1c2.45,0,1.61,0.23,5.08,1.4c3.48,1.17,12.57,4.54,14.08,4.61c1.51,0.07,4.42-8.37,4.42-8.37L307.26,349.43z
			"/>
		<g>
			<path class="st3" d="M315.07,412.64c-0.26,3.44,1.78,4.98-0.01,5.71s-4.22-0.1-9.51,0.21c-4.85,0.29-3.73-2.42-3.73-2.42
				s5.13-0.87,8.5-3.06C310.87,412.74,315.07,412.64,315.07,412.64z"/>
		</g>
		<path class="st4" d="M308.79,366.36c-0.79,3.68-0.96,23.85-0.7,29.11c0,0,0.88,2.54,0.88,4.91c0,2.37-0.09,13.63-0.09,13.63
			s6.44-0.13,7.5-0.13c1.05,0,3.81-15.78,3.81-15.78L308.79,366.36z"/>
		<path class="st3" d="M314.67,337.34c-5.17,3.95-8.68,13.15-8.68,13.15s2.89,3.89,4.21,4.73c1.31,0.84,2.42-11.97,2.42-11.97
			L314.67,337.34z"/>
		<g>
			<path class="st9" d="M315.1,338.35c-1.03-3-2.57-6.56-2.57-6.56l7.45-4.19c0,0-1.55,3.75,1.41,8.72
				C321.86,337.13,315.1,338.35,315.1,338.35z"/>
			<path class="st7" d="M309.25,318.3c2.25-3.54,12.06-4.15,12.2,2.23c0.25,11.62-7.06,12.25-7.06,12.25
				c-2.39-0.35-3.03-0.17-4.67-1.06c-0.81-0.44-1.38-1.77-1.69-3.47c-0.73-0.26-1.5-0.63-1.34-1.16c0.48-0.68,0.82-1.25,1.08-1.75
				C307.72,322.73,308.19,319.96,309.25,318.3z"/>
			<path class="st9" d="M311.68,332.45c0.23,0.03,2.56,0.33,2.84,0.37c0,0,7.49-1.04,7.06-12.25c-0.14-3.74-8.13-4.23-11.39-3.98
				C312.55,319.15,315.26,328.54,311.68,332.45z"/>
			<path class="st8" d="M319.26,317.7c-0.72-1.2-0.76-2.36-3.8-2.44c-2.95-0.08-4.07-0.45-6.06,1.49c-1.02,1-1.05,3.19-1.05,3.19
				s1.14-0.18,1.84,0.03c0.69,0.22,1.66-0.15,2.55,1.19c0.75,1.13,0.93,2.42,0.93,2.42s2.97,1.21,2.99,2.19
				c0.02,0.99,3.18,3.98,3.18,3.98s1.5-3.97,2.1-6.18C323.37,318.42,319.43,317.98,319.26,317.7z"/>
			<g>
				<path class="st8" d="M304.23,316.42c-1.27-0.25-2.17,0.69-1.48,2.16c0.69,1.47,1.47,1.25,2.8,1.43
					c2.08,0.28,3.91,0.18,3.91,0.18L304.23,316.42z"/>
				<path class="st6" d="M320.82,327.86c-0.87-0.79-5.58-5.56-5.58-5.56s-4.95,0.25-6.49-0.83c-1.54-1.08-2.55-4.8-5.34-5.05
					c3.52-0.03,5,0.4,5,0.4s2.04-2.51,6.38-2.52c1.87,0,4.64,1.13,5.49,2.14c0.85,1.02,3.2,2.84,2.67,6.07
					C322.41,325.74,320.82,327.86,320.82,327.86z"/>
			</g>
			<path class="st9" d="M315.2,324.36c0.5-0.43,0.91-1.13,1.5-0.54c0.59,0.59,1.21,3.46,0.03,4.3
				C315.54,328.97,315.2,324.36,315.2,324.36z"/>
			<g>
				<g>
					<g>
						<path class="st11" d="M308.75,321.47c-1.54-1.08-2.55-4.8-5.34-5.05c3.52-0.03,5,0.4,5,0.4s2.04-2.51,6.38-2.52
							c1.15,0,2.64,0.43,3.82,0.99c3.77,2.25-0.26,6.98-1.95,8.45c-0.82-0.82-1.43-1.44-1.43-1.44S310.29,322.54,308.75,321.47z"/>
					</g>
				</g>
			</g>
		</g>
		<g>
			<g>
				<g>
					<path class="st2" d="M322.36,414.99c-0.04,3.45,1.77,5.07,0.04,5.91c-1.74,0.84-3.89-0.04-9.14,0.62
						c-4.82,0.61-3.88-2.17-3.88-2.17s3.81-1.51,7.04-3.91C316.92,415.06,322.36,414.99,322.36,414.99z"/>
				</g>
			</g>
		</g>
		<path class="st5" d="M322.82,363.42c0.3,3,1.88,6.1,1.32,11.54c-0.3,2.94-1.31,8.96-1.31,18.94c0,4.73,0.39,22.49,0.39,22.49
			l-8.81,0.26c0,0-1.05-14.86-3.16-21.17c-1.07-3.2-2.15-20.59-2.38-22.86c-0.75-7.5-0.47-8.53-0.47-8.53L322.82,363.42z"/>
		<path class="st2" d="M320.12,334.73c0.44,2.39,2.46,3.8,1.55,6.8c-0.92,2.99,1.79,13.99,2.27,17.81c0.48,3.82-0.69,4.98-1.38,5.21
			c-0.69,0.23-9.77,1.82-13.19,1.25c-1.04-0.17-4.29-1.75-0.21-18.58c0.37-1.52,0.08-2.59,0.52-3.82c1.05-2.95,4.46-6.44,5.11-6.58
			C317.03,336.32,320.12,334.73,320.12,334.73z"/>
		<g>
			<g>
				<g>
					<path class="st3" d="M323.87,344.18c0.32,3.12-0.29,11.17,0.19,15c0.48,3.82,0.23,4.9-0.46,5.13c-0.3,0.1-4,0.77-6.97,1.18
						c-0.06-2.37,0.39-11.18,0.66-11.31c2.24-1.05,0.9-9.11,1.18-11.64c0.41-3.68-0.21-4.92-2.04-6.18c1.74-0.66,4.24-2,4.24-2
						C321.81,336.18,323.17,337.29,323.87,344.18z"/>
				</g>
			</g>
		</g>
		<path class="st3" d="M321.06,334.82l-0.61-1.41c0,0-3.63,2.49-7.1,3.14c-0.05,0.8,0,1.38,0,1.38S316.09,337.87,321.06,334.82z"/>
		<g>
			
				<rect x="306.14" y="366.4" transform="matrix(0.9943 -0.1065 0.1065 0.9943 -37.8941 35.7747)" class="st26" width="19.45" height="12.27"/>
			
				<rect x="308.4" y="367.54" transform="matrix(0.9943 -0.1065 0.1065 0.9943 -37.8738 35.8245)" class="st21" width="15.97" height="9.74"/>
			<path class="st9" d="M307.1,370.95c0.2-0.02,0.38,0.2,0.41,0.48l0.32,2.96c0.03,0.29-0.1,0.54-0.3,0.56l0,0
				c-0.2,0.02-0.38-0.2-0.41-0.49l-0.32-2.96C306.76,371.23,306.9,370.97,307.1,370.95L307.1,370.95z"/>
		</g>
		<path class="st7" d="M318.35,348.26c-0.54,1.59,0.14,8.5-0.03,9.65c-0.16,1.15-1.74,12.64-2.4,14.28
			c-1.59,0.79-1.98,1.44-1.98,1.44l-2.89,2.3c0,0,0.63,1.03,3.09-0.9c0.66-0.16-1.31,3.86-1.31,3.86s0.22,0.53,2.5,0.53
			c1.65,0,2.11-0.29,2.76-0.61c0.66-0.33,0.73-5.47,1.55-6.29c0.82-0.82,4.6-12.8,4.6-13.46c0-0.66,0.49-10.01,0.49-10.01
			S319.29,345.5,318.35,348.26z"/>
		<g>
			<g>
				<g>
					<g>
						<path class="st3" d="M321.27,339.08c-1.65-0.43-2.89-0.19-4.11,2.21c-1.37,2.7-0.72,7.06-0.92,13.94
							c1.23,1.37,7.97,0.57,8.98-0.69c1.01-1.26-0.45-9.9-0.65-10.97C324.38,342.5,323.7,339.71,321.27,339.08z"/>
					</g>
				</g>
			</g>
		</g>
		<path class="st7" d="M300.21,350.57c-0.01,0.31-0.27,0.56-0.58,0.55l-20.95-0.72c-0.31-0.01-0.56-0.27-0.55-0.59l0.49-14.15
			c0.01-0.31,0.27-0.56,0.59-0.55l20.95,0.72c0.31,0.01,0.56,0.27,0.55,0.59L300.21,350.57z"/>
	</g>
	<path class="st20" d="M264.05,335.17c0.06,0,0.12,0,0.19,0c0.97,0.02,2.45,0.87,3.16,1.58c0.76,0.76,4.43,6.39,4.43,6.39
		l-3.61,1.33l-4.11-8.1L264.05,335.17z"/>
	<path class="st23" d="M251.81,341.82c1.14,2.47,4.12,8.77,3.32,13.1c-0.43,2.31-1.39,6.52-1.39,6.52l6.4,0.37
		c0,0-0.08-8.98-0.08-12.2c0-3.23-3.61-7.02-3.61-7.02L251.81,341.82z"/>
	<path class="st22" d="M264.3,335.62c-0.76-0.76-1.26-0.38-1.64-1.52c-0.38-1.14-0.38-2.53-0.38-2.53l-0.88-4.05l-4.81-2.66
		c0,0,0.38,5.19-0.63,6.96c-1.01,1.77-2.66,1.9-2.66,1.9s4.81,5.7,7.72,6.33c2.91,0.63,3.23-4.87,3.23-4.87L264.3,335.62z"/>
	<path class="st27" d="M259.11,330.7c1.27,0.76,3.04,1.37,3.93,1.37c0.89,0,2.28-1.39,2.78-3.42c0.51-2.03,1.01-6.2,0-7.97
		c-1.01-1.77-4.56-3.16-6.45-0.89c-1.9,2.28-3.04,4.18-2.78,7.21C256.83,330.05,259.11,330.7,259.11,330.7z"/>
	<path class="st20" d="M263.16,334.86c0.29,0.27,1.37,0.32,1.65,0.57c1.95,1.76,2.75,3.14,3.42,4.3c0.76,1.33,1.91,3.75,1.12,6.2
		c-0.44,1.38-0.36,2.53-0.17,4.42c0.19,1.9,1.4,10.41,1.4,10.41s-13.09,1.57-12.71,0.68c4.8-11.2-1.02-16.6-1.02-17.74
		c0-0.71-5.69-4.91-4.89-7.69c0.13-0.46,3.42-2.37,3.42-2.37s6.09,3.54,7.42,4.11C264.11,338.34,263.16,334.86,263.16,334.86z"/>
	<path class="st27" d="M254.65,344.85c0.95,1.14,5.22,5.79,6.17,5.98c0.95,0.19,11.01,3.04,12.34,3.42
		c1.33,0.38,3.23,0.85,3.23,0.85s5.12-0.85,5.12-1.42c0-0.57-0.85-0.47-2.47-0.09c0,0,1.61-0.76,1.33-0.95
		c-0.29-0.19-1.42,0.19-2.66,0.57c-0.81,0.25-1.9-0.76-2.47-1.04c0,0,0.76-0.66,1.23-0.95c0.47-0.29,1.04-0.95,0.85-1.33
		c-0.19-0.38-0.67-0.28-1.42,0.29c-0.76,0.57-1.33,0.38-2.37,0.57c-0.86,0.16-0.85,0.47-1.52,0.47c-0.66,0-7.21-2.66-8.26-3.51
		c-1.04-0.86-4.18-5.5-4.56-5.6C258.83,342.01,254.65,344.85,254.65,344.85z"/>
	<path class="st23" d="M257.62,337.04c-1.14-1.26-2.95-2.52-4.85-1.89c-1.9,0.63-3.22,4.09-0.44,9.03c2.78,4.94,4.47,5.44,4.47,5.44
		l6.13-3.97L257.62,337.04z"/>
	<g class="st1">
		<path class="st9" d="M265.82,328.75c0.48-1.93,0.95-5.81,0.11-7.7c-1.84-0.76-5.18-1.46-5.18-1.46c2.56,1.58,4.93,4.93,2.17,10.65
			c-0.39,0.79-0.86,1.4-1.96,1.46c1,0.49,1.34,0.46,2.07,0.46C263.92,332.16,265.31,330.77,265.82,328.75z"/>
	</g>
	<path class="st14" d="M263.67,320.56c0.21-0.21,2.7,0.61,2.75,2.94c0.03,1.38,0.19,0.24,0.12-1.01c-0.08-1.26-0.4-2.63-2.1-4.01
		c-1.95-1.57-2.43-1.71-4.67-1.38C262.33,319.09,263.67,320.56,263.67,320.56z"/>
	<path class="st13" d="M263.67,320.56c-0.76,0-3.71,0.94-4.5,4.23c-0.95-1.33-1.38-0.33-1.25,0.99c0.05,0.53,0.13,1.64,0.39,2.24
		c0.8,1.81,0.51,3.98,0.2,5.39c-0.37,1.67-1.18,3.94-1.18,3.94l-6.64-2.3c0,0,1.97-3.29,1.78-6.13c-0.19-2.85,0.91-7.49,2.23-9.58
		c1.33-2.09,4.25-2.62,5.39-2.24C261.23,317.47,263.67,320.56,263.67,320.56z"/>
</g>
<g class="st0">
	<polygon class="st12" points="346.57,252.31 346.76,251.14 368.69,254.72 368.5,255.89 346.57,252.31 	"/>
	<g class="st1">
		<g>
			<g>
				<path class="st3" d="M349.08,251.01c0,1.1-0.89,1.98-1.99,1.98c-1.1,0-1.99-0.89-1.99-1.98s0.89-1.99,1.99-1.99
					C348.19,249.03,349.08,249.92,349.08,251.01z"/>
			</g>
		</g>
	</g>
	<path class="st24" d="M405.23,232.56c-10.19,0-18.45,8.26-18.45,18.45c0,10.19,8.26,18.45,18.45,18.45
		c10.19,0,18.45-8.26,18.45-18.45C423.68,240.82,415.42,232.56,405.23,232.56z M405.23,267.1c-8.89,0-16.09-7.2-16.09-16.09
		c0-8.89,7.2-16.09,16.09-16.09c8.88,0,16.09,7.2,16.09,16.09C421.32,259.9,414.12,267.1,405.23,267.1z"/>
	<g class="st1">
		<g>
			<g>
				<path class="st3" d="M407.22,251.01c0,1.1-0.89,1.98-1.98,1.98c-1.1,0-1.99-0.89-1.99-1.98s0.89-1.99,1.99-1.99
					C406.33,249.03,407.22,249.92,407.22,251.01z"/>
			</g>
		</g>
	</g>
	<g class="st1">
		<g>
			<g>
				<path class="st3" d="M405.23,269.46c10.19,0,18.45-8.26,18.45-18.45c0-8.42-5.64-15.52-13.35-17.73l-1.34,2.09
					c7.07,1.69,12.33,8.05,12.33,15.64c0,8.88-7.21,16.09-16.09,16.09c-5.14,0-9.71-2.41-12.66-6.16l-1.34,2.09
					C394.62,266.97,399.63,269.46,405.23,269.46z"/>
			</g>
		</g>
	</g>
	<path class="st12" d="M402.01,224.14c-0.41-0.36-0.46-0.99-0.1-1.4l0,0c0,0,0,0,0.03-0.04l0,0c0.04-0.05,0.09-0.13,0.14-0.25l0,0
		c0.11-0.23,0.22-0.56,0.22-0.99l0,0c0-0.34-0.07-0.75-0.28-1.23l0,0c-0.56-1.23-1.46-1.69-2.22-1.7l0,0
		c-0.38,0-0.73,0.12-1.01,0.35l0,0v0c-0.43,0.34-1.05,0.28-1.39-0.15l0,0c-0.35-0.43-0.28-1.05,0.15-1.39l0,0
		c0.65-0.53,1.45-0.79,2.26-0.79l0,0c1.6,0,3.21,1.03,4.03,2.87l0,0c0.33,0.73,0.45,1.43,0.45,2.04l0,0
		c-0.01,1.57-0.79,2.48-0.87,2.58l0,0c-0.2,0.22-0.47,0.34-0.75,0.34l0,0C402.43,224.38,402.2,224.3,402.01,224.14L402.01,224.14z"
		/>
	<path class="st22" d="M396.14,214.23c0.66,0.26,4.09,1.45,4.89,1.85c0.79,0.4,0.96,0.84,1.09,2.29c0.13,1.45-0.43,2.64-1.09,2.77
		c-0.66,0.13-0.73,0.08-1.19-0.45c-0.27-0.31-0.99-2.77-1.65-2.91c-0.66-0.13-3.96-1.39-4.22-1.78
		C393.7,215.61,396.14,214.23,396.14,214.23z"/>
	<path class="st20" d="M366.42,212.03c4.01,1.12,19.64,8.75,20.6,12.28c0.96,3.53-0.2,3.73-2.18,6.21
		c-2.14,2.68-13.07,12.21-13.07,12.21l-4.64-4.83c0,0,10.76-9.96,10.28-10.12l-9.41-3.66L366.42,212.03z"/>
	<path class="st12" d="M380.94,194.25c1.1,2.18,6.83,11.52,9.38,13.82c2.54,2.3,7.52,6.21,7.52,6.21l-2.68,2.23
		c0,0-8.89-5.24-10.23-6.48c-1.34-1.24-7.01-10.39-7.01-10.39L380.94,194.25z"/>
	<path class="st22" d="M380.27,195.02c2.24-1.12,4.52-2.89,4.52-2.89l-2.32-4.61c0,0-7.17,2.7-7.97,3.18
		C373.7,191.18,380.27,195.02,380.27,195.02z"/>
	<path class="st27" d="M392.58,181.29c-1.1-4.03-10.26-7.5-12.28-1.46c-3.66,10.99,3.12,13.74,3.12,13.74
		c2.38,0.37,2.93,0.73,4.76,0.37c0.9-0.18,1.84-1.28,2.63-2.81c0.77-0.03,1.62-0.16,1.62-0.71c-0.25-0.79-0.41-1.43-0.51-1.98
		C392.72,185.96,393.09,183.18,392.58,181.29z"/>
	<path class="st28" d="M367.13,235.92c-1.12,1.28-3.05,1.44-2.08,3.36c0.96,1.92,4.16,4.65,4.97,5.45c0.8,0.8,4.32,3.37,5.13,1.44
		c0.8-1.92-3.36-8.33-3.36-8.33L367.13,235.92z"/>
	<polygon class="st12" points="398.84,226.42 359.62,226.62 359.55,224.51 398.33,224.5 	"/>
	
		<rect x="363.25" y="217.66" transform="matrix(0.9078 -0.4195 0.4195 0.9078 -65.0359 174.4901)" class="st12" width="1.99" height="34.93"/>
	<polygon class="st12" points="377.39,251.31 375.97,249.94 396.3,225.13 397.91,226.1 	"/>
	<polygon class="st12" points="405.99,250.23 404.37,250.79 396.2,218.9 397.82,218.34 	"/>
	<path class="st24" d="M363.41,220.85c0,0.98,3.64,3.17,2.53,3.17l-13.33-1.4c-1.11,0-2.01-0.79-2.01-1.77l0,0
		c0-0.98,0.9-1.77,2.01-1.77h8.79C362.51,219.08,363.41,219.87,363.41,220.85L363.41,220.85z"/>
	<polygon class="st12" points="347.47,251.91 346.09,250.22 360.37,223.3 361.76,224.98 	"/>
	<path class="st24" d="M347.09,232.56c-10.19,0-18.45,8.26-18.45,18.45c0,10.19,8.26,18.45,18.45,18.45
		c10.19,0,18.45-8.26,18.45-18.45C365.54,240.82,357.28,232.56,347.09,232.56z M347.09,267.1c-8.88,0-16.09-7.2-16.09-16.09
		c0-8.89,7.2-16.09,16.09-16.09s16.09,7.2,16.09,16.09C363.18,259.9,355.97,267.1,347.09,267.1z"/>
	<path class="st12" d="M399.83,226.38c-0.41-0.36-0.45-0.99-0.09-1.4l0,0c0,0,0,0,0.05-0.07l0,0c0.05-0.08,0.13-0.2,0.2-0.35l0,0
		c0.15-0.32,0.31-0.79,0.31-1.38l0,0c0-0.5-0.11-1.09-0.44-1.8l0,0c-0.41-0.89-1.51-1.39-2.71-1.39l0,0c-0.66,0-1.3,0.17-1.68,0.4
		l0,0c-0.4,0.25-0.48,0.44-0.49,0.66l0,0c0,0.08,0.01,0.19,0.07,0.33l0,0l0,0c0.19,0.51-0.06,1.08-0.57,1.28l0,0
		c-0.51,0.2-1.08-0.06-1.28-0.57l0,0c-0.13-0.34-0.2-0.7-0.2-1.05l0,0c-0.01-1.06,0.67-1.91,1.45-2.36l0,0
		c0.79-0.47,1.73-0.69,2.7-0.69l0,0c1.67,0,3.6,0.68,4.49,2.51l0,0c0.46,0.96,0.64,1.87,0.64,2.66l0,0
		c-0.01,1.9-0.97,3.01-1.05,3.11l0,0c-0.2,0.22-0.47,0.34-0.75,0.34l0,0C400.25,226.62,400.02,226.54,399.83,226.38L399.83,226.38z"
		/>
	<path class="st12" d="M367.53,255.75c0-3.47,2.81-6.27,6.28-6.27l0,0c3.46,0,6.27,2.81,6.27,6.27l0,0c0,3.46-2.81,6.27-6.27,6.27
		l0,0C370.34,262.02,367.54,259.21,367.53,255.75L367.53,255.75z M369.52,255.75c0,2.37,1.92,4.29,4.3,4.29l0,0
		c2.37,0,4.28-1.92,4.29-4.29l0,0c0-2.37-1.92-4.29-4.29-4.29l0,0C371.44,251.46,369.52,253.38,369.52,255.75L369.52,255.75z"/>
	<path class="st12" d="M383.95,257.19c0,0.91-0.74,1.64-1.64,1.64h-7.21c-0.91,0-1.64-0.73-1.64-1.64l0,0
		c0-0.91,0.74-1.64,1.64-1.64h7.21C383.21,255.54,383.95,256.28,383.95,257.19L383.95,257.19z"/>
	<path class="st29" d="M371.83,249c0.64,1.28,0.88,2.33,1.19,4.62c0.32,2.38,1.17,3.11,3.81,3.08c2.89-0.04,7.35-0.04,7.35-0.04
		s2.05-1.39-1.58-3.5c-2.23-1.3-4.82-3.3-4.82-3.3l-0.16-1.88L371.83,249z"/>
	<path class="st23" d="M355.53,210.55c-0.96,2.35-3.63,7.29-0.3,9.21c5.15,2.97,16.6,31.69,16.6,31.69l6.67-1.04
		c0,0-8.32-31.64-8.72-33.22c-0.59-2.38-0.2-5.01-0.2-5.45C369.59,211.29,355.53,210.55,355.53,210.55z"/>
	<path class="st24" d="M377.84,189.39c-2.4,0.48-13.33,2.18-23.1,22.64c0,0,13.13,4.55,15.05,4.55
		c0.72-2.64,10.58-13.34,10.82-20.55C380.72,192.67,377.84,189.39,377.84,189.39z"/>
	<path class="st22" d="M390.34,179.01c-3.03-1.19-8.99-2.72-10.17,0.82c-3.67,10.99,3.11,13.74,3.11,13.74
		c0.27,0.04,2.58,0.44,2.81,0.48C383.84,189.26,387.33,180.76,390.34,179.01z"/>
	<path class="st13" d="M381.68,176.71c1.04-0.93,3.31-1.84,6.23-1.02c2.83,0.79,3.65,1.64,4.98,4.08c0.68,1.25,0.06,3.34,0.06,3.34
		s-1.03-0.51-1.75-0.51c-0.73,0-1.54-0.64-2.78,0.38c-1.05,0.86-1.59,2.03-1.59,2.03s-3.18,0.27-3.49,1.21
		c-0.31,0.93-4.22,2.7-4.22,2.7s-1.23-4.27-1.16-6.55C378.11,177.04,381.43,176.93,381.68,176.71z"/>
	<path class="st22" d="M385.12,185.31c-0.34-0.56-0.53-1.35-1.26-0.96c-0.73,0.39-2.17,2.93-1.29,4.09
		C383.44,189.59,385.12,185.31,385.12,185.31z"/>
	<g class="st1">
		<g>
			<g>
				<path class="st30" d="M388.36,183.75c1.24-1.02,2.06-0.38,2.78-0.38c0.73,0,1.86-0.25,1.86-0.25s0.62-2.09-0.06-3.34
					c-1.33-2.44-2.15-3.28-4.98-4.08c-1.14-0.32-2.19-0.37-3.1-0.27c1.22,0.86,3.43,3.07,1.42,9.63c0.88-0.21,0.58-0.04,0.58-0.04
					S387.31,184.61,388.36,183.75z"/>
			</g>
		</g>
	</g>
	<g class="st1">
		<path class="st3" d="M380.88,196.98c0.05-1.54-0.76-4.55-1.31-4.96c-0.56-0.19-2.33-0.11-3.32,0.45
			c-6.04,1.19-14.42,12.82-17.65,20.85c3.97,1.31,10.03,3.4,11.19,3.4C370.51,214.08,380.64,204.19,380.88,196.98z"/>
	</g>
	<g class="st1">
		<g>
			<g>
				<path class="st3" d="M347.09,269.46c10.19,0,18.45-8.26,18.45-18.45c0-8.42-5.64-15.52-13.35-17.73l-1.34,2.09
					c7.07,1.69,12.33,8.05,12.33,15.64c0,8.88-7.2,16.09-16.09,16.09c-5.14,0-9.71-2.41-12.65-6.16l-1.34,2.09
					C336.48,266.97,341.49,269.46,347.09,269.46z"/>
			</g>
		</g>
	</g>
	<g class="st1">
		<path class="st3" d="M398.2,179.27c0.59,0.21,1.79,1.24,0.74,2.57c-1.05,1.33-1.79,0.91-3.19,0.77c-2.18-0.21-4.02-0.76-4.02-0.76
			L398.2,179.27z"/>
		<path class="st2" d="M378.32,186.92c1.07-0.59,7.02-4.31,7.02-4.31s4.97,1.45,6.79,0.72c1.83-0.72,3.75-4.27,6.65-3.85
			c-3.57-0.88-5.18-0.8-5.18-0.8s-1.47-3.04-5.88-4.1c-1.9-0.46-4.99,0.03-6.1,0.85c-1.1,0.83-3.94,2.12-4.18,5.54
			C377.21,184.38,378.32,186.92,378.32,186.92z"/>
	</g>
	<g class="st1">
		<path class="st11" d="M362.97,182.56c-3-0.05-7.19,3.37-11.87,11.07c-4.68,7.7-6.12,10.77-4.16,12.17
			c1.96,1.4,0.99-0.15,0.99-0.15L362.97,182.56z"/>
		<path class="st6" d="M372.7,190.52c-0.32-2.68-4.01-5.78-6.27-6.87c-2.26-1.09-3.89-1.52-5.61-0.7c-0.19,0.09,0.55,0.75-1.49,3.71
			c-2.04,2.96-12.83,17.58-13,18.41c-0.17,0.84,5.1,5.71,6.77,6.33c1.67,0.62,2.26-0.78,2.97-1.92
			C359.4,204.1,357.73,203.83,372.7,190.52z"/>
	</g>
	<path class="st31" d="M355.89,205.38c1.02,1.24,14.27,7.26,16.53,7.49c-0.27,1.99-2.01,2.56-2.01,2.56l-16.57-7.33L355.89,205.38z"
		/>
	<path class="st31" d="M356.25,205.52c0,0,7.63,2.53,21.6-5.82c1.81-1.08,1.85,1.73,0.89,2.19c-17.26,8.36-23.38,5.15-23.38,5.15
		L356.25,205.52z"/>
	<path class="st31" d="M370.23,191.77c1.83-0.83,4.23-2.54,6.58,0.18c2.35,2.72,1.28,7.49,1.28,7.49l1.62,1.89
		c0,0,1.35-7.54-2.81-10.82c-2.94-2.33-5.66-0.48-5.66-0.48L370.23,191.77z"/>
	<path class="st27" d="M394.15,216.06c0.66,0.26,4.09,1.45,4.88,1.85c0.79,0.4,1.19,1.06,1.32,2.51c0.13,1.45,0,2.64-0.66,2.77
		c-0.66,0.13-1.39-0.13-1.85-0.66c-0.27-0.31-0.99-2.77-1.65-2.9c-0.66-0.13-3.96-1.39-4.22-1.78
		C391.71,217.44,394.15,216.06,394.15,216.06z"/>
	<path class="st24" d="M371.35,194.15c-0.95,1.45-0.99,2.37-0.99,2.37c0.96,3.04,7.83,11.96,10.23,15.01
		c2.4,3.04,11.22,8.01,11.22,8.01l3.53-3.61c0,0-9.78-7.92-11.54-10.81c-1.76-2.89-4.09-9.26-5.29-10.9
		C376.28,191.19,372.54,192.32,371.35,194.15z"/>
</g>
<g class="st0">
	<g class="st1">
		<path class="st30" d="M47.64,364.58c-2.06-1.46-2.8-3.27-2.01-4.26c0.79-0.99,7.12-5.48,8.44-5.27c1.32,0.2,9.48,4.57,9.48,4.57
			L47.64,364.58z"/>
		<path class="st8" d="M59.25,357.79c-1.9-1.1-3.77-2.06-5.01-1.85c-1.24,0.21-4.02,2.89-5.45,4.55c-1.42,1.67-5.54,5.82-6.15,7.21
			c-0.62,1.38-1.05,3.03,2.31,6.01c3.36,2.99,19.03,9.71,20.9,9.81c1.87,0.11,7.65-17.35,7.44-17.74
			C73.07,365.39,59.25,357.79,59.25,357.79z"/>
	</g>
	<path class="st14" d="M52,357.16c1.05-2.11,6.2-19.25,8.04-20.83c1.85-1.58,3.16,0.53,3.16,0.53l-1.67,1.32
		c0,0-6.24,16.61-7.82,17.93C52.13,357.42,52,357.16,52,357.16z"/>
	<g class="st1">
		<path class="st9" d="M67.25,338.01c1.16-2.96,2.85-6.46,2.85-6.46l-7.29-4.5c0,0,1.39,3.82-1.77,8.68
			C60.52,336.51,67.25,338.01,67.25,338.01z"/>
		<path class="st9" d="M73.95,318.18c-2.11-3.64-11.91-4.66-12.32,1.73c-0.74,11.63,6.56,12.57,6.56,12.57
			c2.41-0.26,3.04-0.04,4.73-0.87c0.83-0.4,1.46-1.72,1.84-3.41c0.74-0.23,1.53-0.57,1.39-1.11c-0.45-0.7-0.77-1.29-1-1.8
			C75.29,322.68,74.94,319.88,73.95,318.18z"/>
		<path class="st7" d="M69.27,317.25c-3.25-0.38-7.47-1.05-7.77,2.69c-0.9,11.22,6.54,12.17,6.54,12.17
			c0.28-0.03,1.53,0.37,1.76,0.35C72.79,329.12,72.61,319.45,69.27,317.25z"/>
		<path class="st8" d="M63.94,317.16c0.77-1.18,0.86-2.33,3.91-2.28c2.96,0.05,4.09-0.28,6.01,1.75c0.98,1.04,0.92,3.23,0.92,3.23
			s-1.13-0.23-1.84-0.04c-0.71,0.19-1.66-0.22-2.61,1.09c-0.8,1.1-1.03,2.39-1.03,2.39s-3.02,1.08-3.09,2.07
			c-0.06,0.99-3.35,3.85-3.35,3.85s-1.33-4.04-1.85-6.28C59.8,317.7,63.76,317.43,63.94,317.16z"/>
		<g>
			<path class="st8" d="M79.06,316.51c1.28-0.19,2.14,0.78,1.39,2.22c-0.75,1.44-1.53,1.19-2.86,1.31c-2.1,0.19-3.92,0.02-3.92,0.02
				L79.06,316.51z"/>
			<path class="st11" d="M61.96,327.27c0.9-0.75,5.83-5.34,5.83-5.34s4.94,0.46,6.53-0.56c1.59-1.01,2.75-4.7,5.56-4.84
				c-3.52-0.18-5.03,0.19-5.03,0.19s-1.94-2.6-6.29-2.79c-1.87-0.08-4.7,0.93-5.58,1.92c-0.89,0.98-3.32,2.71-2.93,5.97
				C60.45,325.08,61.96,327.27,61.96,327.27z"/>
		</g>
		<path class="st7" d="M67.73,324c-0.48-0.46-0.87-1.17-1.48-0.61c-0.61,0.57-1.36,3.41-0.21,4.31C67.2,328.6,67.73,324,67.73,324z"
			/>
		<g>
			<g>
				<g>
					<path class="st6" d="M74.32,321.37c1.59-1.01,2.75-4.7,5.56-4.84c-3.52-0.18-5.03,0.19-5.03,0.19s-1.94-2.6-6.29-2.79
						c-1.15-0.05-2.67,0.32-3.87,0.84c2.14,1.87,2.75,5.35,1.6,8.55c0.85-0.79,1.49-1.39,1.49-1.39S72.73,322.38,74.32,321.37z"/>
				</g>
			</g>
		</g>
	</g>
	<g class="st1">
		<path class="st3" d="M43.86,403.4c-1.53,0.39-4.09,2.26-3.67,3.53c1.2,3.59,2.4,2.12,4.37,7.47c0.93,2.53,2.96,1.83,4.65,1.97
			c1.72,0.14,2.26-1.55-0.14-3.24c-0.68-0.48-0.38-6.35-0.52-7.19c-1.58,0.11-1.68,0.12-2.16-1.97
			C45.92,401.87,43.86,403.4,43.86,403.4z"/>
	</g>
	<g class="st1">
		<path class="st3" d="M69.04,415.05c0.11,3.46-1.68,5.11,0.08,5.93c1.76,0.81,3.89-0.12,9.18,0.44c4.84,0.51,3.84-2.25,3.84-2.25
			s-3.85-1.43-7.13-3.78C74.49,415.01,69.04,415.05,69.04,415.05z"/>
	</g>
	<path class="st20" d="M65.46,363.17c0.86,5.77,5.83,7.16,5.47,11.29c-0.93,10.62-5.77,19.14-7.13,20.98
		c-1.9,2.56-14.39,13.97-14.39,13.97l-5.83-6.77c0,0,8.66-10.8,11.62-13.9c2.96-3.1,5.68-21.82,5.68-21.82L65.46,363.17z"/>
	<path class="st23" d="M58.36,363.34c-0.3,3.01-1.24,4.7-0.68,10.16c0.31,2.95,6.86,11.66,7.71,21.62c0.23,2.73,2.3,20.64,2.3,20.64
		l9.59-0.19c0,0,0.14-19.7,0.14-23.08c0-3.39-5.3-17.66-5.08-19.93c0.75-7.52,0.47-8.55,0.47-8.55L58.36,363.34z"/>
	<path class="st12" d="M62.37,334.18c-0.54,2.38-2.63,3.71-1.83,6.75c0.79,3.04-2.38,13.94-3.03,17.75
		c-0.64,3.81,0.49,5.02,1.17,5.28c0.68,0.26,12.87,2.69,13.71,2.83c1.04,0.18,3.74-1.73-0.16-19.7c-0.33-1.53-0.73-3.97-1.11-5.22
		c-0.93-3-2.84-5.2-3.48-5.37C65.4,335.91,62.37,334.18,62.37,334.18z"/>
	<g class="st1">
		<g>
			<g>
				<path class="st2" d="M58.99,338.43c-0.86,3.02-0.96,16.27-1.6,20.08c-0.64,3.81-0.44,4.9,0.24,5.16
					c0.29,0.11,3.17,0.85,6.12,1.38c0.16-2.37-3.17-1.78-0.16-19.91c0.62-3.7-1.06-1.55-1.24-4.1c-0.25-3.71,0.15-4.7,2.04-5.89
					c-1.71-0.73-2.25-2.26-2.25-2.26C60.95,334.68,59.78,335.67,58.99,338.43z"/>
			</g>
		</g>
	</g>
	<path class="st24" d="M61.43,334.23l0.67-1.38c0,0,2.63,2.46,6.07,3.27c0.01,0.8-0.04,0.99-0.04,0.99S66.28,337.5,61.43,334.23z"/>
	<polygon class="st12" points="62.68,331.14 60.75,333.95 69.71,339.23 70.06,336.59 	"/>
	<g class="st1">
		<path class="st3" d="M68.1,345.16l17.33-4.53c0,0,0.82,3.47,0.41,7.58c-0.17,1.69-1.64,3.63-1.64,3.63l-15.97-2.05L68.1,345.16z"
			/>
		<path class="st2" d="M69.74,346.42l17.33-4.53c0,0,0.82,3.47,0.41,7.58c-0.17,1.69-1.64,3.63-1.64,3.63l-15.97-2.05L69.74,346.42z
			"/>
		<path class="st3" d="M70.76,347.84l17.34-4.53c0,0,0.82,3.47,0.41,7.58c-0.17,1.7-1.64,3.63-1.64,3.63l-15.97-2.05L70.76,347.84z"
			/>
	</g>
	<polygon class="st32" points="69.3,349.83 70.27,341.76 82.81,345.2 78.59,353.99 	"/>
	<polygon class="st24" points="68.56,350.78 69.25,342.37 81.81,345.7 77.86,354.94 	"/>
	<polygon class="st32" points="63.47,359.14 68.48,343.45 80.79,347.31 74.68,363.09 	"/>
	<path class="st24" d="M67.3,343.61c0.15,2.02-0.31,8.13-0.03,8.33c0.29,0.21,1.39,1.22,4.9,1.94c2.97,0.6,3.12,0.51,3.12,0.51
		s0.91,2.84,0.76,4.56c-0.15,1.72-1.17,0.94-2.52,0.94c-0.93,0-11.88-0.08-12.76-4.53c-0.88-4.45-0.46-11.91-0.92-13.2
		c-0.46-1.29,0.59-4.26,2.17-5.03c1.58-0.76,4.28-0.86,5.16,2.49C67.54,341.03,67.3,343.61,67.3,343.61z"/>
	<path class="st27" d="M77.44,357.54c0.9-0.23,2.39-0.53,3.05-0.63c0.66-0.11,2.61-1.07,2.9-1.38c0.29-0.3,0.97-1.41,0.97-1.41
		s-3.7-0.24-3.9-0.41c-0.92-0.76,1.21-0.83,0.24-2.82c-0.14-0.3-0.36,0.33-0.71,0.97c-0.39,0.7-0.81,1.02-0.81,1.02
		s-1.82,1.44-2.04,1.65c-0.22,0.2-0.77-0.05-0.77-0.05L77.44,357.54z"/>
	<path class="st12" d="M74,354l2.98,0.03c0,0,0.96,1.72,1.29,3.79c0.33,2.07-0.18,2.07-0.5,2.21c-0.32,0.13-3.02,0.23-3.02,0.23
		L74,354z"/>
</g>
<g>
	<g>
		<polygon class="st2" points="203.54,339.04 166.85,345.94 166.85,153.96 203.54,159.71 		"/>
		<path class="st21" d="M171.01,159.25l28.68,4.28V331.2v0.42l-28.68,3.8V159.25L171.01,159.25z M171.97,334.32l26.75-3.54V164.36
			l-26.75-3.99V334.32L171.97,334.32z"/>
		<g>
			<path class="st2" d="M182.81,245.35c0,1.88-1.53,3.4-3.4,3.4c-1.88,0-3.4-1.52-3.4-3.4c0-1.88,1.52-3.4,3.4-3.4
				C181.28,241.95,182.81,243.47,182.81,245.35z"/>
			<path class="st21" d="M175.67,245.35c0-2.07,1.67-3.74,3.74-3.74l0,0c2.07,0,3.75,1.67,3.75,3.74l0,0c0,2.07-1.68,3.74-3.75,3.74
				l0,0C177.34,249.09,175.67,247.42,175.67,245.35L175.67,245.35z M176.34,245.35c0,1.69,1.37,3.06,3.06,3.06l0,0
				c1.69,0,3.06-1.37,3.07-3.06l0,0c0-1.69-1.37-3.06-3.07-3.06l0,0C177.71,242.29,176.35,243.66,176.34,245.35L176.34,245.35z"/>
		</g>
	</g>
	<g>
		<path class="st7" d="M236.27,208.93c-5.32,0.65-14.76,2.1-15.78,1.55c-1.02-0.54-2.5-1.51-7.09-2.28
			c-4.59-0.77-10.37-2.43-12.39-3.12c-2.01-0.7-5.43-5.68-7.2-5.6c-1.78,0.08-6.23,2.28-6.23,2.28s1.37,3.7,1.98,4.07
			c0.61,0.37,1.99,0.1,2.58,0.08c0.59-0.03,2.26,1.67,2.26,1.67s-0.18,0.41,0.63,0.76c0.81,0.36,3.37,0.04,4.39,0.58
			c1.01,0.54,10.05,7.05,13.87,8.25c3.82,1.2,14.33,1.29,16.32,1.4C231.58,218.67,236.27,208.93,236.27,208.93z"/>
		<path class="st6" d="M247.32,205.97c-1.94-0.2-4.01,0.04-6.22,0.45c-2.21,0.4-12.95,2.7-12.95,2.7l-0.41,9.98
			c0,0,15.87,0,18.17-2.36C252,210.5,247.32,205.97,247.32,205.97z"/>
	</g>
	<g>
		<path class="st3" d="M249.11,330.48c-0.44,5.74,2.97,8.3-0.01,9.52c-2.98,1.22-7.03-0.17-15.86,0.36
			c-8.09,0.49-6.22-4.03-6.22-4.03s8.55-1.45,14.18-5.1C242.09,330.64,249.11,330.48,249.11,330.48z"/>
	</g>
	<path class="st4" d="M237.4,252.28c-1.32,6.14-1.14,41.15-0.7,49.92c0,0,1.46,4.24,1.46,8.19c0,3.95-0.14,22.74-0.14,22.74
		s10.75-0.22,12.51-0.22c1.75,0,1.06-82.18,1.06-82.18L237.4,252.28z"/>
	<path class="st6" d="M247.67,205.23c-8.63,6.58-14.48,21.94-14.48,21.94s4.83,6.49,7.02,7.9c2.19,1.41,4.04-19.97,4.04-19.97
		L247.67,205.23z"/>
	<g>
		<path class="st9" d="M248.39,206.9c-1.72-5.01-4.29-10.94-4.29-10.94l12.43-6.98c0,0-2.59,6.26,2.34,14.55
			C259.67,204.86,248.39,206.9,248.39,206.9z"/>
		<path class="st7" d="M238.63,173.45c3.75-5.9,20.12-6.92,20.36,3.73c0.42,19.39-11.78,20.44-11.78,20.44
			c-3.99-0.59-5.05-0.28-7.8-1.77c-1.35-0.73-2.3-2.96-2.83-5.79c-1.22-0.43-2.5-1.05-2.24-1.93c0.79-1.13,1.37-2.08,1.79-2.92
			C236.08,180.85,236.87,176.22,238.63,173.45z"/>
		<path class="st9" d="M242.68,197.06c0.39,0.05,4.28,0.55,4.73,0.62c0,0,12.5-1.73,11.77-20.44c-0.24-6.24-13.56-7.06-19-6.65
			C244.13,174.88,248.66,190.54,242.68,197.06z"/>
		<path class="st8" d="M255.34,172.46c-1.2-2.01-1.27-3.94-6.34-4.07c-4.92-0.13-6.78-0.75-10.12,2.49
			c-1.7,1.66-1.75,5.32-1.75,5.32s1.9-0.31,3.07,0.05c1.16,0.36,2.78-0.26,4.26,1.99c1.26,1.89,1.55,4.04,1.55,4.04
			s4.95,2.01,4.99,3.66c0.03,1.65,5.3,6.64,5.3,6.64s2.5-6.63,3.51-10.32C262.18,173.64,255.62,172.93,255.34,172.46z"/>
		<g>
			<path class="st8" d="M230.25,170.32c-2.11-0.41-3.62,1.15-2.47,3.6c1.14,2.45,2.45,2.08,4.67,2.38c3.47,0.47,6.52,0.3,6.52,0.3
				L230.25,170.32z"/>
			<path class="st6" d="M257.93,189.4c-1.45-1.31-9.32-9.28-9.32-9.28s-8.25,0.42-10.82-1.38c-2.58-1.8-4.25-8.01-8.91-8.43
				c5.87-0.05,8.35,0.66,8.35,0.66s3.41-4.18,10.64-4.21c3.12-0.01,7.75,1.88,9.15,3.57c1.41,1.69,5.33,4.75,4.45,10.14
				C260.59,185.86,257.93,189.4,257.93,189.4z"/>
		</g>
		<path class="st9" d="M248.56,183.57c0.83-0.73,1.52-1.89,2.5-0.9c0.98,0.99,2.02,5.76,0.05,7.17
			C249.13,191.26,248.56,183.57,248.56,183.57z"/>
		<g>
			<g>
				<g>
					<path class="st11" d="M237.8,178.74c-2.58-1.8-4.25-8.01-8.91-8.43c5.87-0.05,8.35,0.66,8.35,0.66s3.41-4.18,10.64-4.21
						c1.92,0,4.41,0.71,6.38,1.66c6.29,3.75-0.44,11.65-3.25,14.11c-1.36-1.38-2.38-2.41-2.38-2.41S240.36,180.54,237.8,178.74z"/>
				</g>
			</g>
		</g>
	</g>
	<g>
		<g>
			<g>
				<path class="st2" d="M264.33,335.16c-0.06,5.76,2.96,8.45,0.06,9.86c-2.9,1.41-6.48-0.07-15.26,1.03
					c-8.04,1.02-6.47-3.62-6.47-3.62s6.36-2.52,11.74-6.53C255.26,335.27,264.33,335.16,264.33,335.16z"/>
			</g>
		</g>
	</g>
	<path class="st5" d="M261.27,248.73c0.5,5.01,4.39,7.58,2.38,20.8c-0.74,4.88,1.45,13.68,1.45,30.32c0,7.9,0.66,37.52,0.66,37.52
		l-14.7,0.44c0,0-1.76-24.79-5.27-35.32c-1.78-5.34-4.59-30.96-5.43-34.68c-2.59-11.5-2.87-18.4-2.87-18.4L261.27,248.73z"/>
	<path class="st11" d="M256.77,200.86c0.74,3.99,4.11,6.35,2.58,11.34c-1.53,4.99,2.99,23.34,3.8,29.72
		c0.8,6.38-1.5,10.84-2.65,11.22c-1.15,0.39-16.31,3.04-22.01,2.09c-1.73-0.29-6.82-5.46-0.01-33.54c0.61-2.54,0.14-4.32,0.87-6.37
		c1.76-4.93,7.44-10.74,8.52-10.98C251.6,203.52,256.77,200.86,256.77,200.86z"/>
	<g>
		<g>
			<g>
				<path class="st6" d="M263.03,216.64c0.53,5.2-0.48,18.64,0.32,25.02c0.8,6.38-0.7,10.96-1.86,11.34
					c-0.49,0.16-6.67,1.28-11.62,1.96c-0.11-3.96,1.74-21.44,2.18-21.65c3.73-1.76,1.5-15.19,1.97-19.42
					c0.68-6.15-0.35-8.2-3.4-10.31c2.9-1.09,7.08-3.35,7.08-3.35C259.58,203.29,261.85,205.14,263.03,216.64z"/>
			</g>
		</g>
	</g>
	<polygon class="st6" points="245.54,202.55 257.9,197.38 259.63,202.26 246.98,206.86 	"/>
	<path class="st9" d="M258.98,231.59c-1.09,4.35-2.61,12.4-3.7,12.84c-1.09,0.44-6.19,1.01-14.19,0.39
		c-5.74-0.45-7.43-1.15-9.34-1.53c-1.71-0.34-4.47-1.19-6.64-1.63c-2.17-0.43-6.87-2.68-6.87-2.68s0.1-0.13,1.42-0.1
		c3.09,0.07,5.45-0.12,7.4,0.32c1.95,0.43,2.43,0.42,3.73-0.67c1.31-1.09,1.02-0.77,2.11-0.77c1.09,0,0.83-0.14,0.83-0.14
		s-1.71,1.31-0.84,1.74c0.87,0.43,14.77-1.23,14.99-2.32c0.22-1.09,0.87-4.57,0.87-4.57L258.98,231.59z"/>
	<g>
		<g>
			<g>
				<g>
					<path class="st6" d="M260.96,208.57c-2.51-1.33-4.62-1.42-7.52,2.01c-3.27,3.86-3.89,11.18-6.86,22.28
						c1.46,2.7,12.72,3.99,14.85,2.34c2.12-1.66,3.07-16.25,3.16-18.06C264.68,215.31,264.65,210.53,260.96,208.57z"/>
				</g>
			</g>
		</g>
	</g>
	<g>
		<g>
			<rect x="194.9" y="231.73" class="st2" width="51.74" height="6.71"/>
			<path class="st21" d="M194.33,239.01v-7.86h52.89v7.28v0.57H194.33L194.33,239.01z M246.64,238.44v-0.58V238.44L246.64,238.44z
				 M195.48,237.86h50.59v-5.56h-50.59V237.86L195.48,237.86z"/>
		</g>
		<g>
			<rect x="192.17" y="224.3" class="st2" width="51.74" height="6.71"/>
			<path class="st21" d="M191.6,231.58v-7.86h52.89v7.28v0.57H191.6L191.6,231.58z M243.91,231.01v-0.58V231.01L243.91,231.01z
				 M192.74,230.43h50.59l0-5.56h-50.59V230.43L192.74,230.43z"/>
		</g>
		<g>
			<rect x="195.14" y="216.83" class="st2" width="51.74" height="6.7"/>
			<path class="st21" d="M194.56,224.11v-7.86h52.89v7.28v0.58H194.56L194.56,224.11z M246.88,223.53v-0.57V223.53L246.88,223.53z
				 M195.71,222.96h50.59v-5.56h-50.59V222.96L195.71,222.96z"/>
		</g>
	</g>
</g>
<g class="st0">
	<g class="st1">
		<path class="st3" d="M62.73,50.24c1.52,2.12,4.92,9.99,4.51,11.9c-0.4,1.91-4.03,2.95-5.95,2.64
			C60.1,64.59,62.73,50.24,62.73,50.24z"/>
		<g>
			<path class="st3" d="M53.73,125.92c1.1,1.37,3.81,2.25,5.96,3.23c2.15,0.98,1.65,2.67,1.06,2.79
				c-0.59,0.12-10.35-0.67-10.35-0.67L53.73,125.92z"/>
			<path class="st4" d="M60.97,82.82c0.09,4.38-0.95,17.96-1.1,21.16c-0.15,3.21-4.28,22.58-4.93,24c-0.65,1.43-3.11-0.49-3.11-0.49
				l-2.98-42.46L60.97,82.82z"/>
			<path class="st2" d="M51.63,130.83c0.1,1.02,1.7,4.31,0.92,5.29c-0.78,0.99-1.88,2.83-4.6,1.68c-2.72-1.15-3.31-3.22-2.98-3.94
				c0.33-0.71,0.71-3.61,1.31-4.02C46.87,129.44,51.63,130.83,51.63,130.83z"/>
			<path class="st5" d="M56.38,81.66c-0.57,10.04-1.84,22.72-2.1,24.95c-0.44,3.81-1.15,23.06-1.81,24.49
				c-0.65,1.43-5.96,0.72-7.69,0.35c-1.73-0.37-0.64-21.93-0.81-23.88c-1.03-11.52-2.16-17.43-2.88-23.49
				C40.52,79.41,56.38,81.66,56.38,81.66z"/>
			<path class="st2" d="M51.7,45.87c3.26-0.11,11.34,3.28,11.38,5.03c0.03,1.75-2.38,18.13-0.11,34.6
				c0.27,1.96-22.3,2.76-23.51,0.45c-1.21-2.31,5.13-28.28-1.42-33.41C36.98,51.72,39.66,46.3,51.7,45.87z"/>
			<path class="st3" d="M40.57,55.56c-0.95-2.64-2.8-3.74-2.8-3.74c-1.16,2.35-4.06,10.11-2.97,10.91c0.86,0.64,3.04,1.45,5.99,2.96
				C42.15,66.39,41.91,59.3,40.57,55.56z"/>
			<g>
				<g>
					<g>
						<path class="st3" d="M39.45,86.01c-0.95-1.82,1.96-16.2,0.94-26.1c-0.28-2.68-1.58-5.72-2.36-7.31
							c-1.15-2.33,3.69-4.57,3.69-4.57s4.81,5.85,3.14,39.26C41.97,87.09,39.8,86.68,39.45,86.01z"/>
					</g>
				</g>
			</g>
			<path class="st7" d="M54.63,43c-0.39,2.32,0.66,4.85,0.18,5.84c-0.48,1-6.39,2.48-7.27-0.61c-0.25-0.89,0,0,0.87-6.53
				C48.54,40.83,54.63,43,54.63,43z"/>
			<g>
				<path class="st9" d="M47.54,48.28c-0.25-0.89,0,0,0.88-6.53c0.12-0.87,6.21,1.3,6.21,1.3c-0.08,0.5-0.1,1.01-0.08,1.52
					c-0.71,0.83-1.62,1.68-2.26,1.98c-0.79,0.38-1.66,2.44-2.06,3.56C48.99,49.98,47.89,49.48,47.54,48.28z"/>
			</g>
			<g>
				<path class="st7" d="M47.86,38.67c0.27,4.6,4.02,7.65,5.78,7.49c2-0.18,5.18-3.51,4.9-8.12c-0.27-4.6,1.03-8.69-5.54-8.57
					C46.56,29.6,47.58,34.07,47.86,38.67z"/>
				<path class="st7" d="M58.21,35.59c0.64-0.02,1.62,0.6,0.97,3.02c-0.66,2.43-1.5,1.17-1.5,1.17L58.21,35.59z"/>
			</g>
			<g>
				<path class="st9" d="M47.79,38.76c-0.44-7.8,2.58-9.1,8.33-9.49c0.9,2.65,0.72,6.06,0.34,9.72c-0.27,2.52-1.33,7.32-3.02,7.26
					C51.64,46.16,48.05,43.26,47.79,38.76z"/>
			</g>
			<polygon class="st3" points="46.88,45.64 44.32,47.36 50.58,52.79 52.66,48.98 			"/>
			<polygon class="st3" points="53.97,48.75 55.09,46.29 57.85,47.46 55.84,51.34 			"/>
			<path class="st30" d="M50.24,35.3l0.09,0.76l-1.81,0.64l-1.43,0.86c0,0-0.41-1.43,0.02-2.89c0.43-1.45,3.25-0.67,3.25-0.67
				L50.24,35.3z"/>
			<path class="st9" d="M48.04,36.2c-0.64,0.02-1.59,0.69-0.8,3.07c0.79,2.39,1.56,1.08,1.56,1.08L48.04,36.2z"/>
			<g>
				<g>
					<path class="st3" d="M46.9,35.44c-0.13-2.88,0.26-4.38,0.94-5.31c0.68-0.92,1.95-2.51,5.82-2.85c0,0,3.62,0.19,5.11,2.33
						c1.48,2.15,0.8,4.1,0.88,4.96c0.08,0.86-1.97-0.26-4.98,0C51.65,34.84,46.9,35.44,46.9,35.44z"/>
					<path class="st2" d="M49.84,35.1c0,0,6.81-2.59,9.52-1.31c1.95,1.24,4.02,3.88,3.65,4.02c-0.37,0.14-1.47-1.39-2.77-1.33
						c-1.51,0.07-6.49,1.48-7.01,1.52C52.53,38.06,49.84,35.1,49.84,35.1z"/>
				</g>
				<g>
					<g>
						<g>
							<path class="st2" d="M59.64,34.58c-0.07-0.86,0.61-2.82-0.88-4.96c-1.48-2.14-5.11-2.33-5.11-2.33
								c-1.15,0.1-1.43,0.13-2.17,0.4c-1.65,1.74-1.67,4.66-1.53,7.42c1.54-0.22,3.01-0.38,4.7-0.53
								C57.67,34.32,59.72,35.44,59.64,34.58z"/>
						</g>
					</g>
				</g>
			</g>
			<g>
				<g>
					<path class="st18" d="M55.61,76.16c0.02-0.01,0.29-0.82,0.36-2.13c0.06,3.42,1.29-0.75,2.85,0.96c3.1,3.38,8.36-4.88,9-9.29
						c0.64-4.41-2.43-8.51-6.84-9.14c-0.43-0.06-0.86-0.09-1.28-0.08c-0.73-1.78-2.36-3.14-4.4-3.44c-1.25-0.18-2.46,0.06-3.49,0.63
						c-1.1-1.22-2.62-2.07-4.37-2.32c-3.99-0.57-7.68,2.19-8.26,6.18c-0.11,0.77-0.1,1.52,0.03,2.24c-2.79-0.05-5.25,1.99-5.65,4.82
						c-0.18,1.25,0.06,2.45,0.62,3.48c-0.32,0.14-0.54,0.28-0.62,0.4c-0.58,0.93-0.21,0.65-0.14,1.78c0.06,1.13,1.54,0.22,1.43,0.99
						c-0.11,0.77,2.27,0.66,2.82,0.74c0,0-0.85,3.43,3.13,4.61c3.45,1.02,6.11-0.24,7.99-1.85l2.62,1.05l-1.97,5.75l6.08,0.29
						L55.61,76.16z"/>
					<g>
						<path class="st6" d="M56.57,58.73c-1.92-0.04-2.02,0.1-1.23,1.84c-1.08-1.57-1.26-1.53-2.32,0.18
							c0.67-1.76,0.51-1.86-1.4-1.26c1.68-0.85,1.63-1.01-0.23-1.48c1.9,0.15,2,0.01,0.68-1.33c1.61,1.17,1.79,1.13,1.68-0.77
							c0.5,1.95,0.67,2.04,2.1,0.77C54.64,58.2,54.69,58.36,56.57,58.73z"/>
						<path class="st11" d="M55.96,57.7c-1.4,0.62-1.43,0.75-0.27,1.75c-1.31-0.77-1.43-0.68-1.62,0.92
							c-0.11-1.5-0.26-1.51-1.44-0.44c0.93-1.18,0.83-1.28-0.67-0.99c1.42-0.54,1.45-0.67,0.04-1.19c1.56,0.3,1.68,0.21,0.95-1.12
							c1.02,1.24,1.17,1.25,1.78-0.15C54.39,57.97,54.48,58.07,55.96,57.7z"/>
					</g>
					<g>
						<path class="st6" d="M41.32,64.35c-1.39-0.03-1.46,0.07-0.89,1.33c-0.78-1.14-0.91-1.11-1.68,0.13
							c0.49-1.28,0.37-1.34-1.01-0.91c1.22-0.61,1.18-0.73-0.17-1.07c1.38,0.11,1.45,0.01,0.49-0.97c1.16,0.85,1.3,0.82,1.22-0.56
							c0.36,1.41,0.49,1.48,1.52,0.56C39.92,63.98,39.96,64.09,41.32,64.35z"/>
						<path class="st11" d="M40.88,63.61c-1.01,0.45-1.03,0.55-0.19,1.27c-0.95-0.56-1.03-0.49-1.17,0.66
							c-0.08-1.09-0.19-1.09-1.04-0.31c0.67-0.86,0.6-0.93-0.48-0.72c1.03-0.39,1.05-0.48,0.03-0.87c1.13,0.22,1.21,0.15,0.69-0.81
							c0.74,0.9,0.85,0.9,1.29-0.11C39.74,63.81,39.81,63.88,40.88,63.61z"/>
					</g>
					<g>
						<path class="st6" d="M53.71,71.62c-3.07-0.06-3.23,0.16-1.97,2.95c-1.72-2.51-2.02-2.44-3.72,0.29
							c1.08-2.82,0.81-2.97-2.24-2.01c2.69-1.36,2.6-1.61-0.37-2.37c3.04,0.24,3.21,0.02,1.09-2.13c2.57,1.87,2.87,1.8,2.69-1.23
							c0.8,3.12,1.07,3.27,3.35,1.23C50.63,70.78,50.72,71.03,53.71,71.62z"/>
						<path class="st11" d="M52.74,69.97c-2.24,0.99-2.28,1.2-0.42,2.79c-2.09-1.23-2.28-1.08-2.59,1.47
							c-0.18-2.41-0.42-2.42-2.3-0.7c1.49-1.89,1.33-2.04-1.07-1.59c2.28-0.86,2.32-1.07,0.07-1.91c2.49,0.48,2.68,0.33,1.52-1.8
							c1.64,1.98,1.88,2,2.84-0.24C50.23,70.41,50.38,70.56,52.74,69.97z"/>
					</g>
					<g>
						<path class="st21" d="M42.42,68.93c0.06,0.05,0.12,0.09,0.18,0.15c0.07,0.06-0.51,0.49-0.53,0.5
							c-0.06,0.05,0.85-0.17,0.89-0.11c0.04,0.06,0.32,0.23,0.24,0.31c-0.1,0.1-0.56,0.09-0.56,0.11c-0.01,0.08,0.61,0.15,0.63,0.23
							c0.06,0.23,0.08,0.47,0.04,0.71c-0.02,0.15-0.11,0.33-0.22,0.51c-0.15,0.24-0.34,0.46-0.46,0.61c-0.13,0.15-0.65-0.6-0.68-0.6
							c-0.19-0.03,0.57,0.8,0.38,0.86c-0.04,0.01-0.25,0.11-0.3,0.13c-0.08,0.02-0.43-1.06-0.53-1.03
							c-0.07,0.02,0.29,1.06,0.21,1.08c-0.12,0.03-0.25,0.06-0.38,0.08c-0.04,0.01-0.07,0.01-0.11,0.02
							c-0.05,0.01-0.09,0.01-0.14,0.02c-0.08,0.01-0.15,0.02-0.22,0.02c-0.1,0.01-0.2,0-0.28-0.01c-0.14-0.02-0.04-1.04-0.07-1.06
							c-0.06-0.04-0.48,0.93-0.55,0.9c-0.17-0.06-0.62-0.38-0.77-0.47c-0.16-0.1,0.34-0.38,0.27-0.43c-0.1-0.07-0.57,0.15-0.64,0.05
							c-0.15-0.2-0.26-0.42-0.32-0.66c-0.05-0.17-0.07-0.35-0.06-0.54c0-0.06,0.01-0.12,0.02-0.19c0.01-0.08,1.05-0.06,1.07-0.13
							c0.01-0.05-0.99-0.19-0.98-0.23c0.03-0.09,0.08-0.18,0.13-0.27c0.05-0.09,0.1-0.17,0.17-0.24c0.04-0.05,0.08-0.1,0.13-0.14
							c0.04-0.04,0.57,0.18,0.51,0.17c-0.06-0.01-0.4-0.3-0.33-0.35c0.11-0.07,0.39-0.25,0.52-0.3c0.11-0.05,0.45,0.26,0.42,0.14
							c-0.01-0.06-0.2-0.33-0.06-0.35c0.24-0.03,0.88-0.02,1.14,0.01C41.65,68.5,42.07,68.68,42.42,68.93z"/>
						<path class="st11" d="M41.9,70.45c-0.07,0.46-0.57,0.77-1.11,0.69c-0.55-0.08-0.94-0.52-0.87-0.98
							c0.07-0.46,0.56-0.77,1.11-0.69C41.58,69.55,41.97,69.99,41.9,70.45z"/>
					</g>
					<g>
						<path class="st21" d="M47.59,63.05c0.03,0.05,0.06,0.11,0.08,0.16c0.03,0.07-0.51,0.19-0.53,0.19
							c-0.06,0.01,0.65,0.14,0.67,0.2c0.01,0.06,0.15,0.27,0.07,0.29c-0.1,0.04-0.42-0.11-0.43-0.1c-0.03,0.05,0.38,0.29,0.38,0.36
							c-0.03,0.18-0.09,0.36-0.19,0.52c-0.06,0.1-0.18,0.2-0.32,0.29c-0.18,0.12-0.38,0.22-0.52,0.29
							c-0.14,0.07-0.27-0.62-0.29-0.64c-0.13-0.08,0.16,0.74,0,0.73c-0.03,0-0.21,0-0.25,0c-0.06-0.01,0.02-0.88-0.05-0.89
							c-0.06-0.01-0.12,0.84-0.18,0.83c-0.1-0.02-0.2-0.04-0.29-0.06c-0.03-0.01-0.06-0.01-0.08-0.02
							c-0.04-0.01-0.07-0.02-0.11-0.03c-0.06-0.02-0.11-0.03-0.16-0.05c-0.07-0.03-0.14-0.06-0.19-0.09
							c-0.09-0.06,0.29-0.75,0.28-0.77c-0.03-0.05-0.63,0.51-0.67,0.47c-0.1-0.1-0.32-0.46-0.4-0.57c-0.08-0.12,0.36-0.17,0.32-0.22
							c-0.05-0.08-0.45-0.07-0.47-0.16c-0.04-0.19-0.05-0.38-0.02-0.56c0.02-0.14,0.06-0.27,0.12-0.4c0.02-0.04,0.04-0.09,0.07-0.13
							c0.03-0.05,0.76,0.29,0.79,0.24c0.02-0.03-0.64-0.44-0.62-0.47c0.05-0.06,0.11-0.11,0.17-0.15c0.06-0.05,0.13-0.09,0.19-0.12
							c0.04-0.02,0.09-0.04,0.13-0.06c0.04-0.02,0.35,0.3,0.31,0.28c-0.04-0.02-0.19-0.33-0.12-0.35c0.1-0.02,0.35-0.05,0.46-0.05
							c0.09,0,0.24,0.32,0.26,0.23c0.01-0.04-0.04-0.3,0.06-0.26c0.18,0.05,0.63,0.26,0.8,0.36C47.18,62.52,47.42,62.77,47.59,63.05
							z"/>
						<path class="st11" d="M46.76,63.98c-0.19,0.31-0.64,0.37-1,0.14c-0.36-0.22-0.5-0.65-0.32-0.96c0.19-0.31,0.64-0.37,1-0.15
							C46.8,63.24,46.94,63.67,46.76,63.98z"/>
					</g>
					<g>
						<path class="st21" d="M62.34,58.16c0.03,0.05,0.06,0.1,0.08,0.16c0.03,0.07-0.51,0.19-0.53,0.19
							c-0.06,0.01,0.65,0.14,0.67,0.2c0.01,0.05,0.15,0.26,0.07,0.29c-0.1,0.04-0.42-0.11-0.43-0.1c-0.03,0.05,0.38,0.3,0.37,0.36
							c-0.03,0.18-0.09,0.36-0.19,0.52c-0.06,0.1-0.18,0.2-0.32,0.29c-0.18,0.12-0.38,0.22-0.52,0.29c-0.14,0.07-0.27-0.62-0.3-0.64
							c-0.13-0.08,0.16,0.74,0,0.73c-0.03,0-0.21,0-0.25,0c-0.06-0.01,0.02-0.88-0.05-0.89c-0.06-0.01-0.12,0.84-0.18,0.83
							c-0.1-0.02-0.2-0.04-0.29-0.06c-0.03-0.01-0.06-0.01-0.08-0.02c-0.04-0.01-0.07-0.02-0.11-0.03
							c-0.06-0.02-0.11-0.03-0.16-0.05c-0.07-0.03-0.14-0.06-0.19-0.09c-0.09-0.06,0.29-0.74,0.28-0.77
							c-0.03-0.05-0.63,0.51-0.67,0.47c-0.1-0.1-0.32-0.46-0.4-0.57c-0.08-0.12,0.36-0.17,0.32-0.22c-0.05-0.08-0.45-0.07-0.47-0.16
							c-0.04-0.19-0.05-0.38-0.03-0.56c0.02-0.14,0.06-0.27,0.12-0.4c0.02-0.04,0.04-0.09,0.07-0.13c0.03-0.05,0.76,0.29,0.8,0.24
							c0.02-0.03-0.65-0.44-0.62-0.47c0.05-0.06,0.11-0.11,0.17-0.15c0.06-0.04,0.13-0.09,0.19-0.12c0.04-0.02,0.09-0.04,0.14-0.06
							c0.04-0.02,0.34,0.3,0.31,0.28c-0.04-0.02-0.19-0.33-0.12-0.35c0.1-0.02,0.35-0.05,0.46-0.05c0.09,0,0.23,0.32,0.26,0.23
							c0.01-0.04-0.04-0.29,0.06-0.26c0.18,0.05,0.63,0.26,0.8,0.36C61.93,57.62,62.18,57.87,62.34,58.16z"/>
						<path class="st11" d="M61.51,59.08c-0.19,0.3-0.64,0.37-1,0.14c-0.36-0.23-0.5-0.66-0.31-0.96c0.19-0.31,0.64-0.37,1-0.15
							C61.56,58.34,61.7,58.77,61.51,59.08z"/>
					</g>
					<g>
						<path class="st21" d="M48.41,54.94c0.06,0.05,0.12,0.1,0.18,0.15c0.07,0.06-0.51,0.49-0.53,0.5
							c-0.06,0.05,0.85-0.17,0.89-0.11c0.04,0.06,0.32,0.23,0.24,0.31c-0.1,0.1-0.56,0.09-0.56,0.11c-0.01,0.08,0.61,0.15,0.63,0.23
							c0.06,0.23,0.08,0.47,0.04,0.71c-0.02,0.15-0.11,0.33-0.22,0.51c-0.15,0.23-0.34,0.46-0.46,0.61
							c-0.13,0.15-0.65-0.6-0.68-0.61c-0.19-0.03,0.57,0.8,0.38,0.86c-0.04,0.01-0.25,0.11-0.3,0.13c-0.08,0.02-0.43-1.06-0.53-1.03
							c-0.07,0.02,0.29,1.06,0.22,1.08c-0.12,0.03-0.25,0.06-0.38,0.08c-0.04,0.01-0.07,0.01-0.11,0.02
							c-0.05,0.01-0.09,0.01-0.14,0.02c-0.07,0.01-0.15,0.02-0.22,0.02c-0.1,0-0.2,0-0.28-0.01c-0.14-0.02-0.04-1.04-0.07-1.06
							c-0.06-0.04-0.48,0.93-0.55,0.9c-0.17-0.06-0.62-0.38-0.77-0.47c-0.16-0.1,0.33-0.38,0.27-0.43c-0.1-0.07-0.57,0.15-0.64,0.05
							c-0.15-0.2-0.26-0.42-0.32-0.66c-0.05-0.17-0.07-0.35-0.06-0.54c0-0.06,0.01-0.12,0.02-0.19c0.01-0.08,1.05-0.05,1.07-0.13
							c0.01-0.05-0.99-0.19-0.98-0.23c0.03-0.09,0.08-0.18,0.13-0.27c0.05-0.09,0.11-0.17,0.17-0.25c0.04-0.05,0.08-0.1,0.13-0.14
							c0.04-0.04,0.57,0.18,0.51,0.17c-0.06-0.01-0.4-0.3-0.33-0.35c0.11-0.07,0.39-0.25,0.52-0.3c0.11-0.05,0.45,0.26,0.42,0.14
							c-0.01-0.06-0.2-0.33-0.06-0.35c0.24-0.03,0.88-0.02,1.14,0.01C47.64,54.51,48.06,54.69,48.41,54.94z"/>
						<path class="st11" d="M47.89,56.46c-0.07,0.46-0.56,0.77-1.11,0.69c-0.55-0.08-0.94-0.52-0.87-0.98
							c0.07-0.46,0.56-0.77,1.11-0.69C47.57,55.57,47.96,56,47.89,56.46z"/>
					</g>
					<g>
						<path class="st21" d="M63.6,64.35c0.05,0.06,0.09,0.13,0.13,0.2c0.05,0.08-0.64,0.3-0.67,0.3c-0.08,0.02,0.86,0.11,0.88,0.18
							c0.02,0.07,0.23,0.32,0.13,0.37c-0.12,0.06-0.55-0.1-0.56-0.08c-0.04,0.07,0.53,0.34,0.52,0.42
							c-0.02,0.24-0.08,0.47-0.19,0.69c-0.07,0.14-0.21,0.28-0.38,0.41c-0.21,0.17-0.47,0.33-0.63,0.43
							c-0.18,0.1-0.42-0.77-0.45-0.79c-0.17-0.09,0.29,0.94,0.08,0.94c-0.04,0-0.28,0.02-0.32,0.02c-0.08,0-0.07-1.14-0.17-1.15
							c-0.07,0-0.06,1.1-0.14,1.1c-0.13-0.01-0.26-0.02-0.39-0.04c-0.04-0.01-0.07-0.01-0.11-0.02c-0.05-0.01-0.09-0.02-0.14-0.03
							c-0.07-0.01-0.14-0.03-0.21-0.05c-0.1-0.03-0.19-0.06-0.26-0.1c-0.13-0.06,0.3-0.99,0.27-1.03c-0.05-0.06-0.75,0.72-0.81,0.67
							c-0.14-0.12-0.47-0.56-0.58-0.69c-0.12-0.14,0.44-0.25,0.39-0.32c-0.07-0.1-0.59-0.04-0.62-0.16
							c-0.08-0.24-0.11-0.48-0.09-0.72c0.01-0.18,0.05-0.36,0.11-0.53c0.02-0.06,0.05-0.12,0.08-0.17c0.04-0.07,1.01,0.28,1.05,0.22
							c0.03-0.04-0.88-0.5-0.85-0.53c0.06-0.08,0.13-0.15,0.21-0.21c0.07-0.07,0.15-0.13,0.24-0.18c0.05-0.03,0.11-0.07,0.17-0.09
							c0.05-0.03,0.48,0.35,0.43,0.32c-0.05-0.03-0.28-0.41-0.2-0.43c0.13-0.03,0.45-0.11,0.59-0.12c0.12-0.01,0.34,0.39,0.36,0.27
							c0.01-0.06-0.09-0.38,0.05-0.35c0.24,0.05,0.84,0.26,1.08,0.38C63.01,63.71,63.35,64.01,63.6,64.35z"/>
						<path class="st11" d="M62.62,65.63c-0.21,0.42-0.78,0.55-1.28,0.3c-0.49-0.25-0.72-0.79-0.51-1.21
							c0.21-0.41,0.78-0.55,1.28-0.3C62.61,64.68,62.83,65.22,62.62,65.63z"/>
					</g>
					<g>
						<path class="st21" d="M53.75,62.65c0.08,0.01,0.16,0.02,0.23,0.04c0.1,0.02-0.21,0.67-0.22,0.7
							c-0.03,0.07,0.65-0.56,0.73-0.53c0.06,0.03,0.39,0.05,0.36,0.15c-0.04,0.13-0.44,0.35-0.44,0.37c0.03,0.08,0.6-0.16,0.66-0.11
							c0.17,0.17,0.3,0.37,0.38,0.6c0.05,0.14,0.06,0.34,0.05,0.55c-0.01,0.28-0.07,0.57-0.11,0.76c-0.04,0.2-0.86-0.21-0.89-0.19
							c-0.18,0.07,0.89,0.42,0.75,0.56c-0.03,0.03-0.17,0.22-0.2,0.26c-0.05,0.06-0.89-0.71-0.96-0.64
							c-0.05,0.05,0.78,0.79,0.72,0.84c-0.09,0.09-0.19,0.17-0.29,0.26c-0.03,0.02-0.06,0.05-0.09,0.07
							c-0.04,0.03-0.08,0.06-0.11,0.09c-0.06,0.04-0.12,0.09-0.18,0.12c-0.09,0.05-0.17,0.1-0.25,0.13
							c-0.13,0.05-0.54-0.89-0.58-0.89c-0.08-0.01,0.03,1.04-0.04,1.05c-0.18,0.02-0.73-0.03-0.9-0.04
							c-0.19-0.01,0.11-0.5,0.02-0.51c-0.12-0.01-0.43,0.41-0.53,0.36c-0.23-0.1-0.43-0.24-0.6-0.42c-0.13-0.13-0.23-0.27-0.32-0.44
							c-0.03-0.06-0.05-0.11-0.08-0.17c-0.03-0.07,0.89-0.56,0.87-0.63c-0.01-0.05-0.96,0.32-0.97,0.27c-0.02-0.1-0.02-0.2-0.02-0.3
							c0-0.1,0.01-0.2,0.03-0.3c0.01-0.06,0.02-0.13,0.04-0.19c0.02-0.06,0.58-0.12,0.53-0.1c-0.05,0.02-0.5-0.06-0.45-0.14
							c0.06-0.12,0.22-0.41,0.31-0.52c0.07-0.1,0.52,0.01,0.44-0.09c-0.04-0.04-0.34-0.19-0.22-0.27c0.2-0.14,0.76-0.45,1-0.54
							C52.87,62.65,53.33,62.6,53.75,62.65z"/>
						<path class="st11" d="M54.04,64.23c0.17,0.44-0.12,0.95-0.63,1.15c-0.52,0.2-1.07,0.01-1.24-0.43
							C52,64.51,52.29,64,52.81,63.8C53.32,63.6,53.88,63.79,54.04,64.23z"/>
					</g>
				</g>
				<path class="st7" d="M40.51,76c1.08,1.73,2.84,2.73,4.39,3.06c1.55,0.33,5.27,0.1,6.1-0.33c0.83-0.43,3.48-3.35,3.49-3.64
					c0.01-0.3-1.33-0.55-1.33-0.55s-2.94,2.17-3.38,2.01c-0.44-0.16,0.05-0.42,0.99-1.32c0.98-0.95,1.36-1.23,0.77-1.32
					c-0.59-0.09-1.35,0.64-3.22,1.42c-1.32,0.55-4.01-0.15-4.89-0.69c-0.88-0.54-2.92,1.06-2.92,1.06L40.51,76z"/>
				<path class="st18" d="M46.42,75.53c-0.16,1.14-2.07,1.8-4.26,1.49c-2.19-0.32-3.84-1.49-3.67-2.63c0.16-1.14,2.07-1.8,4.26-1.49
					C44.94,73.21,46.59,74.39,46.42,75.53z"/>
			</g>
		</g>
	</g>
	<g class="st1">
		<g>
			<path class="st9" d="M92.2,125.59c0.05,2.91,0.66,5.32,0.77,8.09c0.13,3.24-9.38,1.7-11.51,1.84c-2.13,0.14-1.78-2.15,2.02-3.23
				c5.61-1.6,5.07-5.42,5.07-5.42L92.2,125.59z"/>
			<g>
				<path class="st3" d="M81.51,135.51c-2,0.13-2.34-2.01,1.37-3.02c1.12,0.97,4.1,0.66,5.6,0.44c1.88-0.28,2.94-1.07,4.43-1.06
					c0.01,0.58,0.12,1.17,0.11,1.8C92.95,136.91,83.63,135.38,81.51,135.51z"/>
			</g>
		</g>
		<g>
			<path class="st33" d="M98.25,126.97c0.48,2.87,0.62,5.62,1.14,8.33c0.61,3.19-9.02,3.08-11.11,3.53
				c-2.08,0.45-2.07-1.86,1.52-3.5c5.31-2.41,4.2-6.11,4.2-6.11L98.25,126.97z"/>
			<g>
				<path class="st2" d="M88.33,138.82c-1.96,0.43-2.62-1.64,0.91-3.19c1.26,0.79,4.16,0.04,5.6-0.4c1.81-0.56,2.74-1.49,4.22-1.71
					c0.1,0.57,0.29,1.14,0.37,1.76C99.85,138.5,90.41,138.37,88.33,138.82z"/>
			</g>
		</g>
		<path class="st4" d="M85.99,83.79c0.37,1.39,0.22,4.31,0.22,4.31s-0.58,19.54-0.09,22.74c1.21,7.83,0.54,17.4,0.49,19.46
			c-0.06,2.06,5.87,0.88,6.97,0.59c0.06-3.84-0.35-19.06,0.26-21.27c0.61-2.2,3.9-14.47,3.9-14.47L92.17,83.7L85.99,83.79z"/>
		<path class="st5" d="M86.62,83.2c0.11,1.33,0.26,5.1,0.49,9.74c0.33,6.65,1.55,15.23,1.98,17.07c2.5,10.84,1.68,20.87,1.83,22.23
			c4.04,0.46,8.82-0.37,8.82-0.37s1.04-10.14-0.35-20.67c-1.39-10.47,0.67-17.64,0.92-19.22c0.81-4.97,0.46-7.48-0.38-9.25
			c-2.35-4.98-9.1-0.51-9.1-0.51L86.62,83.2z"/>
		<g>
			<path class="st4" d="M99.38,111.2c-1.39-10.47,0.67-17.64,0.92-19.22c0.81-4.97,0.46-7.48-0.38-9.25
				c-1.36-2.89-4.2-2.6-6.35-1.84c1.69,5.02,2.25,11.26,1.81,17.24c-0.48,6.37,2.09,21.29,2.07,27.67
				c-0.01,2.55,0.02,4.71,0.05,6.39c1.37-0.13,2.24-0.32,2.24-0.32S100.78,121.73,99.38,111.2z"/>
		</g>
		<path class="st33" d="M86.25,49.38c1.57,1.88,1.41,4.07,1.05,5.09c-0.47,1.34-0.03,1.68,2.21,0.96c1.97-0.63,2.33-0.94,3.59-1.05
			c-0.68-1.07-1.13-5.75-0.04-8.55C94.15,43.04,86.25,49.38,86.25,49.38z"/>
		<g>
			<path class="st9" d="M93.04,45.58c0.62-1.59-5.67,1.78-7.77,3.26l5.01,6.07c1.31-0.45,1.73-0.69,2.79-0.78
				C92.4,53.07,91.95,48.38,93.04,45.58z"/>
		</g>
		<path class="st33" d="M93.73,41.73c0.21,4.67-2.85,9.42-6.57,9.58c-3.71,0.16-5.67-3.53-5.88-8.21c-0.21-4.67,1.71-7.7,5.42-7.87
			C90.41,35.08,93.52,37.06,93.73,41.73z"/>
		<path class="st33" d="M82.09,42.66c-0.21,1.08,0.37,1.79-0.67,4.57c-0.02,0.74,1.9,0.62,2.26,0.69
			C84.04,47.99,82.09,42.66,82.09,42.66z"/>
		<path class="st9" d="M93.82,41.75c-0.21-4.67-3.31-6.66-7.03-6.49c-0.7,0.03,1.01,3.33,0.44,3.56c0.87,1.66,2.5,10.94-1.15,12.43
			c0.37,0.07,0.76,0.11,1.17,0.09C90.97,51.17,94.02,46.42,93.82,41.75z"/>
		<path class="st8" d="M81.61,38.93c-0.17-1.11,1.62-4.14,6.94-3.79c2.21,0.14,3.58,0.69,4.46,1.51c1.1,0.71,2.21,1.94,3.16,4.09
			c1.71,5.82,2.28,15.2,4.68,13.13c-0.75,1.58-1.4,0.46-1.87-0.04c0.3,0.53,0.88,2.2,2.23,0.08c0.09,0.86-0.55,2.11-1.82,1.78
			c0.77,0.42,1.56-0.04,2.14-0.57c0.64-0.59-0.58,0.92-1.99,1.47c0.59-0.18,1.65-0.55,2.12-1.14c0.3-0.38,0.13,2.4-3.96,2.56
			c-0.99,0.04-1.02-0.61-1.78-0.99c1.1,0.66,0.87,1.31,4.17,0.97c-5.14,2.26-7.88-5.92-10.62-11.39c-0.3-0.4-0.43-0.76-0.23-1.02
			c0.47-0.61,1.2-2.84,0.17-2.94c-0.5-0.05-1.11,0.29-1.11,0.29l-1.83-1.64c-1.42,0.25-4.65,0.78-6,0.77
			C79.59,39.98,81.18,38.94,81.61,38.93z"/>
		<path class="st18" d="M87.16,54.95c-0.75,1.29-3.3,8.47-3.71,10.61c-0.42,2.13,0.45,5.56,2,9.89c1.55,4.33-0.08,9.88,0.63,9.9
			c0.72,0.02,14.74-1.35,14.67-1.87c-0.48-3.28-2.97-6.61-3.02-8.88c-0.06-2.26,0.8-11.51-0.64-15.36
			c-1.45-3.85-4.01-5.91-4.38-5.68C89.95,55.21,87.16,54.95,87.16,54.95z"/>
		<g>
			<g>
				<g>
					<path class="st25" d="M85.59,77.34c-1.53-6.28-2.55-9.65-2.14-11.78c0.41-2.13,2.9-9.32,3.65-10.61c0,0,1.47,0.01,2.92-0.31
						c1.16,0.53,3.81,2.48,3.95,5.62c0.12,2.6-1.9,9.04-0.93,13.4c0.57,2.39,1.98,6.53,2.72,10.67c-3.54,1.27-9.21,1.03-9.68,1.02
						C85.37,85.33,86.68,81.81,85.59,77.34z"/>
				</g>
			</g>
		</g>
		<g>
			<path class="st30" d="M89.2,45.65c-0.2,0.26-0.07,0.62,0.23,1.02c2.74,5.48,5.48,13.66,10.62,11.39
				c-1.26,0.13-2.01,0.12-2.51,0.01c0.04,0,0.08,0.01,0.12,0.01c4.09-0.16,4.26-2.94,3.96-2.56c-0.47,0.59-1.53,0.97-2.12,1.14
				c1.41-0.56,2.63-2.06,1.99-1.47c-0.58,0.53-1.37,0.99-2.14,0.57c1.27,0.33,1.91-0.93,1.82-1.79c-1.35,2.12-1.93,0.45-2.23-0.08
				c0.48,0.5,1.12,1.62,1.87,0.04c-2.4,2.08-2.97-7.3-4.68-13.13c-0.95-2.15-2.05-3.38-3.16-4.09c-0.88-0.81-2.25-1.36-4.46-1.51
				c-0.11-0.01-0.21,0-0.33-0.01c0.52,2.76,0.38,5.32,0.21,7.72c0.21-0.1,0.6-0.25,0.94-0.21C90.41,42.81,89.67,45.05,89.2,45.65z
				 M96.4,57.47c-0.15-0.12-0.3-0.24-0.51-0.37C96.11,57.21,96.27,57.34,96.4,57.47z"/>
		</g>
		<path class="st33" d="M81.72,70.39c0,0-3.19-0.13-3.75-0.56c-0.56-0.43-0.9-1.32-0.9-1.32l-1.96-0.36c0,0-0.27,0.3-2.26-0.58
			c-1.03-0.18-1.39-0.3-1.39-0.3s-0.58,0.4-0.23,0.82c0.35,0.42,0.81,0.75,0.81,0.75s0.13,0.88,0.49,1.2
			c0.35,0.32,2.89,1.26,3.82,1.44c0.93,0.18,4.03,1.82,5.11,2.26C82.53,74.19,81.72,70.39,81.72,70.39z"/>
		<polygon class="st8" points="88.69,72.32 68.72,66.69 66.86,63.98 85.7,69.35 		"/>
		<path class="st18" d="M95.62,64.35c-0.16,2.27-0.78,9.53-1.74,10.74c-0.96,1.22-3.73,0.61-5.38,0.56c-1.66-0.04-9.52-2-9.52-2
			l0.79-3.85c0,0,9.05,1.21,9.56,1.22c0.52,0.01-0.04-5.29-0.42-7.66c-0.33-1.98-0.46-5.42,3.48-5.52
			C96.45,57.74,95.62,64.35,95.62,64.35z"/>
		<g>
			<g>
				<path class="st9" d="M82.13,65.75c0.56,0.33,0.56,0.22,0.88,0.18c0.31-0.04,0.83,0.02,0.92,0.39c0.09,0.36-0.12,0.46-0.5,1.13
					c-0.38,0.66-0.8,1.01-0.95,0.7c-0.15-0.31,0.18-0.98,0.14-1.14c-0.05-0.16-0.56-0.27-0.56-0.27L82.13,65.75z"/>
				<path class="st9" d="M81.87,65.59c-0.4-0.32-1.17-0.81-1.53-0.71c-0.37,0.09-0.42,0.35-0.63,0.4s-0.73,0.03-0.74,0.39
					c-0.01,0.36,0.05,1.92,0.05,1.92s-0.1,0.51,0.78,0.79c0.87,0.28,3.45,0.91,3.25,0.39c-0.19-0.52-0.87-1.36-1.02-1.52
					c-0.15-0.16-0.92-0.49-0.91-0.8c0.01-0.31,0.92,0.28,0.92,0.28L81.87,65.59z"/>
				<polygon class="st5" points="81.82,67.51 80.85,60.7 81.59,60.77 82.54,68.07 				"/>
			</g>
			<path class="st9" d="M81.33,66.78c0.17,0.14,0.66,0.26,0.86,0.52c0.2,0.25,0.91,1.35,0.89,1.56c-0.02,0.21-1.95-0.37-2.64-0.68
				C79.75,67.88,81.33,66.78,81.33,66.78z"/>
		</g>
	</g>
</g>
<g class="st0">
	<path class="st22" d="M56.56,190.52c1.5,1.67,7.67,10.94,8.7,11.52c1.03,0.58,7.58,3.03,9.65,3.93c1.85-0.04,3.89-0.12,3.89-0.12
		s1.42,0.97,2.16,2.07c0.74,1.1,0.01,2.38-1.37,3.37c0,0-3.1-1.48-3.32-2.29c-0.22-0.81-5-0.52-6.59-0.6
		c-1.58-0.08-9.09-3.38-10.57-5.57C57.63,200.63,56.56,190.52,56.56,190.52z"/>
	<path class="st20" d="M57.35,190.37c1.25,1.39,6.27,8.47,6.27,8.47s-0.56,1.67-1.85,2.5c-1.29,0.83-3.89-6.2-3.89-6.2L57.35,190.37
		z"/>
	<g class="st1">
		<path class="st9" d="M55.43,190.28c1.02-2.96,2.54-6.47,2.54-6.47l-7.35-4.13c0,0,1.53,3.7-1.39,8.61
			C48.75,189.08,55.43,190.28,55.43,190.28z"/>
		<path class="st9" d="M61.21,170.49c-2.22-3.49-11.91-4.09-12.05,2.21c-0.25,11.48,6.97,12.09,6.97,12.09
			c2.36-0.35,2.99-0.17,4.62-1.05c0.8-0.43,1.36-1.75,1.67-3.43c0.72-0.26,1.48-0.63,1.33-1.14c-0.47-0.67-0.81-1.23-1.06-1.73
			C62.71,174.87,62.25,172.13,61.21,170.49z"/>
		<path class="st7" d="M60.28,168.8c-3.22-0.24-11.1,0.24-11.25,3.93c-0.43,11.07,6.97,12.09,6.97,12.09
			c0.27-0.04,2.57-0.34,2.8-0.37C55.27,180.6,57.95,171.34,60.28,168.8z"/>
		<path class="st8" d="M51.32,169.9c0.71-1.19,0.75-2.33,3.75-2.41c2.91-0.08,4.01-0.44,5.99,1.47c1,0.98,1.03,3.15,1.03,3.15
			s-1.13-0.18-1.81,0.03c-0.69,0.21-1.64-0.15-2.52,1.17c-0.74,1.12-0.92,2.39-0.92,2.39s-2.93,1.19-2.95,2.16
			c-0.02,0.98-3.14,3.93-3.14,3.93s-1.48-3.92-2.08-6.1C47.27,170.61,51.15,170.18,51.32,169.9z"/>
		<g>
			<path class="st8" d="M66.16,168.64c1.25-0.24,2.14,0.68,1.46,2.13c-0.68,1.45-1.45,1.23-2.76,1.41
				c-2.05,0.28-3.86,0.18-3.86,0.18L66.16,168.64z"/>
			<path class="st11" d="M49.79,179.93c0.85-0.77,5.51-5.49,5.51-5.49s4.88,0.25,6.4-0.82c1.52-1.06,2.52-4.74,5.27-4.99
				c-3.47-0.03-4.94,0.39-4.94,0.39s-2.02-2.48-6.3-2.49c-1.84,0-4.58,1.11-5.41,2.11c-0.84,1-3.15,2.81-2.63,6
				C48.21,177.84,49.79,179.93,49.79,179.93z"/>
		</g>
		<path class="st7" d="M55.33,176.48c-0.49-0.43-0.9-1.12-1.48-0.53c-0.58,0.58-1.2,3.41-0.03,4.25
			C54.99,181.03,55.33,176.48,55.33,176.48z"/>
		<g>
			<g>
				<g>
					<path class="st6" d="M61.7,173.62c1.52-1.06,2.52-4.74,5.27-4.99c-3.47-0.03-4.94,0.39-4.94,0.39s-2.02-2.48-6.3-2.49
						c-1.14,0-2.61,0.42-3.77,0.98c2.18,1.75,2.93,5.15,1.92,8.35c0.81-0.81,1.41-1.42,1.41-1.42S60.18,174.69,61.7,173.62z"/>
				</g>
			</g>
		</g>
	</g>
	<g class="st1">
		<path class="st3" d="M36.65,256.55c-1.51,0.39-4.03,2.22-3.61,3.47c1.18,3.53,2.36,2.08,4.3,7.36c0.92,2.49,2.92,1.8,4.58,1.94
			c1.69,0.14,2.22-1.53-0.14-3.19c-0.67-0.47-0.37-6.25-0.51-7.08c-1.55,0.11-1.66,0.12-2.13-1.94
			C38.68,255.04,36.65,256.55,36.65,256.55z"/>
	</g>
	<g class="st1">
		<path class="st3" d="M61.1,265.95c0.11,3.41-1.65,5.04,0.08,5.83c1.73,0.8,3.83-0.12,9.04,0.43C74.98,272.72,74,270,74,270
			s-3.8-1.41-7.03-3.72C66.46,265.91,61.1,265.95,61.1,265.95z"/>
	</g>
	<path class="st20" d="M54.8,214.87c0.84,5.68,5.74,7.05,5.39,11.12c-0.92,10.46-5.68,18.85-7.03,20.66
		c-1.87,2.52-11.05,15.83-11.05,15.83l-5.74-6.67c0,0,5.41-12.71,8.33-15.77c2.92-3.05,5.59-21.49,5.59-21.49L54.8,214.87z"/>
	<path class="st23" d="M47.81,215.04c-0.3,2.97-1.22,4.63-0.67,10c0.3,2.9,4.85,13.68,7.59,21.29c0.91,2.54,4.78,19.93,4.78,19.93
		l9.44-0.19c0,0-3-19.62-3.81-22.85c-1.38-5.54-3.79-16.87-3.57-19.11c0.74-7.41,0.46-8.42,0.46-8.42L47.81,215.04z"/>
	<path class="st20" d="M50.48,186.72c-0.44,2.36-2.43,3.76-1.53,6.71c0.91,2.95-1.77,13.81-2.25,17.58
		c-0.47,3.77,0.69,4.91,1.37,5.14c0.68,0.23,12.77,2.12,13.61,2.22c1.03,0.13,3.61-1.85-0.97-19.38c-0.39-1.49-0.08-2.56-0.52-3.77
		c-1.04-2.92-3.8-6.32-4.44-6.46C53.53,188.29,50.48,186.72,50.48,186.72z"/>
	<g class="st1">
		<g>
			<g>
				<path class="st5" d="M47.56,194.68c-0.31,3.08-0.5,12.4-0.98,16.18c-0.47,3.78-0.23,4.84,0.46,5.07
					c0.29,0.1,3.15,0.71,6.08,1.11c0.06-2.34-3.19-1.62-0.97-19.58c0.45-3.66-1.11-1.48-1.39-3.98c-0.4-3.64-0.05-4.63,1.76-5.88
					c-1.72-0.65-2.59-1.25-2.59-1.25C48.81,188.15,48.25,187.87,47.56,194.68z"/>
			</g>
		</g>
	</g>
	<path class="st23" d="M49.55,186.81l0.6-1.39c0,0,2.68,2.31,6.11,2.96c0.05,0.79,0,0.97,0,0.97S54.46,189.81,49.55,186.81z"/>
	<polygon class="st13" points="99,262.48 106.22,257.4 107.14,258.71 99.92,263.79 99,262.48 	"/>
	<g class="st1">
		<path class="st3" d="M100.75,263.23c0,3.43-2.78,6.21-6.21,6.21c-3.43,0-6.21-2.78-6.21-6.21c0-3.43,2.78-6.21,6.21-6.21
			C97.96,257.02,100.75,259.8,100.75,263.23z"/>
		<path class="st16" d="M97.63,263.23c0,1.71-1.39,3.09-3.09,3.09c-1.71,0-3.09-1.39-3.09-3.09c0-1.71,1.38-3.09,3.09-3.09
			C96.24,260.13,97.63,261.52,97.63,263.23z"/>
	</g>
	<path class="st13" d="M107.1,259.3c-0.97-0.55-1.85-1.5-2.81-3.09l0,0c-0.94-1.57-6.52-12.08-12.12-22.58l0,0
		c-5.54-10.4-11.13-20.87-11.78-21.88l0,0c-0.33-0.38-0.59-0.47-1.1-0.49l0,0c-1.21-0.06-3.33,1.24-4.18,1.93l0,0
		c-0.29,0.22-0.44,0.35-0.44,0.35l0,0c-0.56,0.48-1.4,0.43-1.88-0.13l0,0c-0.49-0.56-0.43-1.4,0.13-1.89l0,0
		c0.13-0.03,3.03-2.83,6.38-2.94l0,0c1.1-0.02,2.37,0.44,3.2,1.51l0,0c0.2,0.26,0.28,0.42,0.5,0.81l0,0
		c0.21,0.37,0.48,0.86,0.82,1.47l0,0c0.67,1.22,1.58,2.9,2.66,4.9l0,0c2.15,4,4.95,9.26,7.79,14.58l0,0
		c5.65,10.62,11.48,21.58,12.31,22.96l0,0c0.83,1.39,1.45,1.93,1.81,2.13l0,0c0.34,0.18,0.57,0.2,1.09,0.2l0,0
		c0.02-0.01,0.05-0.02,0.09-0.03l0,0c0.15-0.06,0.4-0.16,0.69-0.29l0,0c0.59-0.26,1.4-0.65,2.35-1.11l0,0
		c1.89-0.93,4.32-2.18,6.71-3.43l0,0c4.78-2.5,9.4-5,9.41-5l0,0l0,0c0.65-0.35,1.46-0.11,1.81,0.54l0,0
		c0.35,0.65,0.11,1.46-0.54,1.81l0,0c0,0-4.08,2.21-8.54,4.55l0,0c-4.49,2.36-9.24,4.8-10.96,5.44l0,0
		c-0.27,0.08-0.39,0.17-0.88,0.19l0,0c-0.04,0-0.09,0-0.13,0l0,0C108.9,259.84,108.01,259.81,107.1,259.3L107.1,259.3z M80.4,211.73
		L80.4,211.73L80.4,211.73L80.4,211.73L80.4,211.73L80.4,211.73z"/>
	<path class="st13" d="M94.92,264.56l-2.76-31.98c-0.05-0.59,0.38-1.11,0.97-1.16l0,0c0.59-0.05,1.11,0.39,1.16,0.97l0,0l2.76,31.99
		c0.05,0.59-0.38,1.11-0.97,1.16l0,0c-0.03,0-0.06,0-0.09,0l0,0C95.44,265.54,94.97,265.12,94.92,264.56L94.92,264.56z"/>
	<g class="st1">
		<path class="st3" d="M103.11,266.88c0,3.43-2.78,6.21-6.21,6.21c-3.43,0-6.21-2.78-6.21-6.21c0-3.43,2.78-6.21,6.21-6.21
			C100.33,260.67,103.11,263.45,103.11,266.88z"/>
		<path class="st16" d="M100,266.88c0,1.71-1.38,3.09-3.09,3.09c-1.71,0-3.09-1.39-3.09-3.09c0-1.71,1.39-3.1,3.09-3.1
			C98.61,263.78,100,265.17,100,266.88z"/>
	</g>
	<g class="st1">
		<path class="st7" d="M54.73,191.3l9.38,12.43l8.12,3.61c0,0,3.43,0.34,5.02,0.37c1.59,0.03,1.55,1.62,2.58,2.96
			c1.03,1.34-0.6,3.43-1.66,3.4c-1.06-0.02-1.01-2.4-2.33-2.43c-1.32-0.03-3.16-0.6-3.96-0.61c-0.79-0.02-10.27-2.07-10.27-2.07
			l-8.79-9.71l1.08-8.71L54.73,191.3z"/>
		<g>
			<g>
				<g>
					<path class="st5" d="M49.78,191.32c0.66-1.55,2.43-2.75,4.87-1.7c2.75,1.18,3.93,5.27,8.43,10.36
						c-0.07,1.82-4.97,5.88-6.53,5.56c-1.56-0.32-5.73-7.06-6.26-8C49.76,196.61,48.99,193.17,49.78,191.32z"/>
				</g>
			</g>
		</g>
	</g>
	<g class="st1">
		<g>
			<g>
				<path class="st5" d="M136.4,233.05c-0.29,0.19-0.69,0.1-0.87-0.2l-1.99-3.12c-0.19-0.3-0.1-0.69,0.2-0.88l1.07-0.68
					c0.3-0.19,0.69-0.1,0.88,0.2l1.99,3.12c0.19,0.3,0.1,0.69-0.19,0.88L136.4,233.05z"/>
				<path class="st5" d="M131.13,231.05c-6.08-6.12-10.41-2.52-10.41-2.52l-3.18,1.98l-1.15,2.01l-4.81,2.99l-2.52,0.27l-6.25,3.89
					c-1.53,4.5,3.85,14.03,8.64,14.96l6.23-3.24l0.81-1.62l6.87-3.77l1.97,0.13l2.71-1.45c0,0,5.26-2,2.98-10.32
					c0.69-0.49,1.51-0.92,2.21-1.25l-2.08-3.27C132.55,230.28,131.83,230.72,131.13,231.05z"/>
			</g>
		</g>
		<path class="st16" d="M116.86,233.03c1.01,2.35,4.03,7.64,5.89,9.79c-3.48,1.94-6.42,3.83-6.42,3.83s-6.38-9.74-5.02-10.42
			C112.32,235.72,116.86,233.03,116.86,233.03z"/>
	</g>
	<g class="st1">
		<g>
			<g>
				<path class="st5" d="M126.93,215.68c-0.29,0.19-0.68,0.11-0.88-0.18l-2.03-3.1c-0.19-0.29-0.11-0.69,0.19-0.88l1.06-0.7
					c0.29-0.19,0.69-0.11,0.88,0.18l2.03,3.1c0.19,0.29,0.11,0.69-0.18,0.88L126.93,215.68z"/>
				<path class="st5" d="M121.64,213.74c-6.16-6.05-10.44-2.39-10.44-2.39l-3.15,2.02l-1.12,2.02l-4.77,3.05l-2.51,0.3l-6.2,3.97
					c-1.48,4.52,4.03,13.98,8.82,14.85l6.19-3.31l0.79-1.63l6.82-3.85l1.97,0.1l2.69-1.48c0,0,5.24-2.06,2.85-10.35
					c0.69-0.5,1.49-0.93,2.2-1.28l-2.12-3.25C123.05,212.95,122.34,213.4,121.64,213.74z"/>
			</g>
		</g>
		<path class="st16" d="M107.39,215.89c1.04,2.34,4.12,7.59,6.01,9.71c-3.46,1.98-6.37,3.91-6.37,3.91s-6.5-9.66-5.14-10.36
			C102.89,218.65,107.39,215.89,107.39,215.89z"/>
	</g>
	<g class="st1">
		<g>
			<g>
				<path class="st5" d="M117.56,198.85c-0.29,0.19-0.69,0.1-0.87-0.2l-1.99-3.12c-0.19-0.3-0.1-0.69,0.2-0.88l1.07-0.68
					c0.3-0.19,0.69-0.1,0.88,0.2l1.99,3.12c0.19,0.3,0.1,0.69-0.19,0.88L117.56,198.85z"/>
				<path class="st5" d="M112.29,196.86c-6.08-6.12-10.41-2.52-10.41-2.52l-3.18,1.98l-1.15,2.01l-4.81,2.99l-2.51,0.27l-6.25,3.89
					c-1.53,4.5,3.86,14.03,8.64,14.96l6.23-3.24l0.81-1.62l6.87-3.77l1.97,0.13l2.71-1.45c0,0,5.26-2,2.98-10.32
					c0.69-0.49,1.51-0.92,2.21-1.25l-2.08-3.27C113.71,196.08,112.99,196.52,112.29,196.86z"/>
			</g>
		</g>
		<path class="st16" d="M98.02,198.83c1.01,2.35,4.03,7.64,5.89,9.79c-3.48,1.94-6.42,3.83-6.42,3.83s-6.38-9.74-5.02-10.42
			C93.48,201.53,98.02,198.83,98.02,198.83z"/>
	</g>
	<path class="st13" d="M117.51,254.26c-0.01-0.01-2.74-5.47-6.36-12.49l0,0c-3.63-7.01-8.14-15.58-11.69-21.74l0,0
		c-2.32-4.07-4.38-7.21-5.07-7.76l0,0c-0.92-0.79-1.73-1.03-2.59-1.04l0,0c-2.26-0.06-4.89,2.13-7.25,3.05l0,0h0
		c-0.56,0.2-1.17-0.08-1.37-0.64l0,0c-0.2-0.56,0.08-1.17,0.64-1.37l0,0c1.76-0.57,4.59-3.12,7.98-3.18l0,0
		c1.33-0.01,2.74,0.46,3.99,1.56l0,0c1.26,1.14,3.1,4.14,5.52,8.31l0,0c2.39,4.15,5.19,9.34,7.87,14.43l0,0
		c5.36,10.17,10.23,19.91,10.24,19.92l0,0c0.26,0.53,0.05,1.17-0.48,1.43l0,0c-0.15,0.08-0.32,0.11-0.48,0.11l0,0
		C118.07,254.85,117.7,254.63,117.51,254.26L117.51,254.26z"/>
</g>
<g class="st0">
	<g class="st1">
		<path class="st3" d="M278.13,264.39c-0.21,3.34,1.8,4.8,0.08,5.54c-1.72,0.74-4.09-0.04-9.22,0.35c-4.7,0.36-3.66-2.29-3.66-2.29
			s4.96-0.92,8.21-3.09C274.05,264.55,278.13,264.39,278.13,264.39z"/>
	</g>
	<path class="st20" d="M280.46,220.13c-1.36,13.16-6.68,18.89-6.71,24.01c0,0-0.08,6.66-0.2,8.95c-0.13,2.29-2.3,12.53-2.3,12.53
		s6.25,0.22,7.27,0.28c1.02,0.06,4.55-15.09,4.55-15.09L280.46,220.13z"/>
	<path class="st12" d="M289.06,191.47c-6.3,1.27-10.5,12.12-10.5,12.12s2.04,3.16,3.15,4.2c1.11,1.03,4.38-11.01,4.38-11.01
		L289.06,191.47z"/>
	<g class="st1">
		<path class="st9" d="M289.3,192.5c-0.47-3.05-1.32-6.71-1.32-6.71l7.84-2.72c0,0-2.12,3.32-0.16,8.57
			C295.97,192.5,289.3,192.5,289.3,192.5z"/>
		<path class="st7" d="M287.16,172.34c2.76-2.99,12.24-1.88,11.27,4.24c-1.76,11.15-8.85,10.49-8.85,10.49
			c-2.22-0.75-2.87-0.68-4.28-1.82c-0.7-0.56-1.01-1.93-1.02-3.61c-0.65-0.37-1.32-0.86-1.08-1.34c0.57-0.56,1-1.05,1.33-1.49
			C284.94,176.31,285.87,173.74,287.16,172.34z"/>
		<path class="st9" d="M287.05,186.28c0.22,0.07,2.39,0.76,2.65,0.84c0,0,7.33,0.3,8.85-10.49c0.51-3.6-7.04-5.44-10.19-5.77
			C290.17,173.73,291.14,183.16,287.05,186.28z"/>
		<path class="st8" d="M296.83,173.5c-0.48-1.27-0.32-2.38-3.21-2.98c-2.8-0.58-3.81-1.13-6.05,0.38c-1.14,0.78-1.55,2.86-1.55,2.86
			s1.12,0.02,1.75,0.35c0.63,0.33,1.62,0.14,2.23,1.58c0.53,1.21,0.47,2.47,0.47,2.47s2.63,1.66,2.48,2.61
			c-0.15,0.95,2.35,4.35,2.35,4.35s2.11-3.54,3.08-5.55C300.63,174.88,296.94,173.79,296.83,173.5z"/>
		<g>
			<path class="st8" d="M282.69,169.68c-1.17-0.45-2.19,0.28-1.79,1.81c0.4,1.52,1.19,1.44,2.43,1.84c1.94,0.63,3.7,0.85,3.7,0.85
				L282.69,169.68z"/>
			<path class="st6" d="M296.57,183.46c-0.69-0.9-4.38-6.28-4.38-6.28s-4.77-0.61-6.05-1.91c-1.29-1.3-1.61-5.02-4.23-5.75
				c3.37,0.58,4.71,1.24,4.71,1.24s2.38-2.04,6.53-1.31c1.79,0.32,4.24,1.87,4.87,2.99c0.63,1.12,2.56,3.27,1.5,6.26
				C298.46,181.71,296.57,183.46,296.57,183.46z"/>
		</g>
		<path class="st9" d="M291.81,179.16c0.55-0.33,1.06-0.93,1.52-0.26c0.46,0.66,0.56,3.51-0.71,4.11
			C291.34,183.62,291.81,179.16,291.81,179.16z"/>
		<g>
			<g>
				<g>
					<path class="st11" d="M286.14,175.28c-1.29-1.3-1.61-5.02-4.23-5.75c3.37,0.58,4.71,1.24,4.71,1.24s2.38-2.04,6.53-1.31
						c1.1,0.2,2.45,0.86,3.48,1.61c3.21,2.8-1.45,6.62-3.32,7.74c-0.64-0.93-1.12-1.63-1.12-1.63S287.43,176.58,286.14,175.28z"/>
				</g>
			</g>
		</g>
	</g>
	<g class="st1">
		<g>
			<g>
				<path class="st2" d="M295.45,266.3c-0.04,3.35,1.72,4.92,0.04,5.74c-1.68,0.82-3.77-0.04-8.88,0.6c-4.68,0.59-3.77-2.1-3.77-2.1
					s3.7-1.46,6.83-3.8C290.17,266.37,295.45,266.3,295.45,266.3z"/>
			</g>
		</g>
	</g>
	<path class="st23" d="M292.44,216.65c0.29,2.92,1.82,5.92,1.28,11.2c-0.3,2.85-3.29,9.98-1.28,18.38
		c2.47,10.31,3.48,21.82,3.48,21.82l-8.55,0.26c0,0-4.12-14.42-6.17-20.55c-1.04-3.11-2.09-19.99-2.31-22.19
		c-0.73-7.28-0.46-8.28-0.46-8.28L292.44,216.65z"/>
	<path class="st24" d="M294.72,189.91c0.01,2.36,1.7,4.06,0.31,6.76c-1.39,2.7-0.7,13.67-0.89,17.4c-0.2,3.74-1.52,4.64-2.22,4.74
		c-0.7,0.1-9.65,0.06-12.82-1.08c-0.96-0.34-3.8-2.41,3-17.79c0.61-1.39,0.52-2.46,1.15-3.56c1.52-2.64,5.37-5.38,6.01-5.41
		C291.49,190.9,294.72,189.91,294.72,189.91z"/>
	<g class="st1">
		<g>
			<g>
				<path class="st3" d="M297.75,200.8c-0.23,3.03-3.27,9.4-3.47,13.14c-0.2,3.73-0.62,4.72-1.32,4.82
					c-0.3,0.04-3.95,0.04-6.86-0.08c0.35-2.28,2.3-10.62,2.58-10.69c2.32-0.62,2.43-8.54,3.14-10.91c1.02-3.45,0.64-4.73-0.88-6.25
					c1.77-0.33,4.4-1.19,4.4-1.19C296.08,191.59,298.26,194.1,297.75,200.8z"/>
			</g>
		</g>
	</g>
	<path class="st12" d="M295.6,190.16l-0.34-1.45c0,0-3.89,1.75-7.32,1.78c-0.18,0.75-0.24,1.32-0.24,1.32
		S290.33,192.21,295.6,190.16z"/>
	<path class="st22" d="M198.49,194.06c1.05,1.93,4.8,12.16,5.64,12.95c0.85,0.79,6.52,4.62,8.28,5.95c1.77,0.39,3.72,0.78,3.72,0.78
		s1.12,1.25,1.58,2.46c0.45,1.21-0.54,2.27-2.07,2.89c0,0-2.61-2.12-2.64-2.94c-0.03-0.82-4.64-1.64-6.13-2.08
		c-1.49-0.44-7.87-5.29-8.78-7.72C197.19,203.93,198.49,194.06,198.49,194.06z"/>
	<path class="st20" d="M199.27,194.11c0.87,1.61,4.56,11.92,4.56,11.92s-1.44-0.97-2.86-0.48c-1.42,0.5-2.28-6.79-2.28-6.79
		L199.27,194.11z"/>
	<g class="st1">
		<path class="st9" d="M197.47,193.59c1.65-2.59,3.89-5.58,3.89-5.58l-6.05-5.61c0,0,0.61,3.87-3.29,7.87
			C191.39,190.91,197.47,193.59,197.47,193.59z"/>
		<path class="st9" d="M207.49,176.09c-1.31-3.83-10.39-6.62-11.96-0.66c-2.86,10.86,3.86,13.1,3.86,13.1
			c2.33,0.21,2.88,0.53,4.63,0.06c0.86-0.23,1.69-1.35,2.37-2.88c0.75-0.08,1.55-0.25,1.52-0.78c-0.29-0.74-0.49-1.36-0.61-1.89
			C207.92,180.59,208.11,177.88,207.49,176.09z"/>
		<path class="st7" d="M207,174.27c-3-0.97-10.61-2.31-11.59,1.17c-2.94,10.43,3.86,13.1,3.86,13.1c0.27,0.02,2.52,0.27,2.75,0.29
			C199.53,184.34,204.2,176.14,207,174.27z"/>
		<path class="st8" d="M198.22,173.26c0.95-0.97,1.25-2.04,4.12-1.43c2.79,0.59,3.92,0.5,5.36,2.77c0.73,1.16,0.27,3.23,0.27,3.23
			s-1.03-0.43-1.73-0.38c-0.7,0.05-1.53-0.52-2.67,0.54c-0.96,0.9-1.42,2.07-1.42,2.07s-3.06,0.46-3.3,1.38
			c-0.24,0.92-3.88,3.02-3.88,3.02s-0.51-4.07-0.58-6.28C194.21,173,198,173.49,198.22,173.26z"/>
		<g>
			<path class="st8" d="M212.63,175.45c1.24,0.05,1.88,1.14,0.9,2.36c-0.98,1.22-1.66,0.84-2.95,0.71
				c-2.02-0.21-3.71-0.71-3.71-0.71L212.63,175.45z"/>
			<path class="st11" d="M194.47,182.45c0.99-0.54,6.5-3.96,6.5-3.96s4.59,1.35,6.28,0.69c1.69-0.66,3.48-3.93,6.15-3.54
				c-3.3-0.82-4.79-0.75-4.79-0.75s-1.35-2.82-5.42-3.81c-1.75-0.43-4.61,0.01-5.63,0.77c-1.02,0.76-3.64,1.95-3.88,5.1
				C193.45,180.1,194.47,182.45,194.47,182.45z"/>
		</g>
		<path class="st7" d="M200.53,180.43c-0.37-0.52-0.6-1.27-1.28-0.85c-0.68,0.42-1.92,2.97-1,4.03
			C199.17,184.68,200.53,180.43,200.53,180.43z"/>
		<g>
			<g>
				<g>
					<path class="st6" d="M207.24,179.17c1.69-0.66,3.48-3.93,6.15-3.54c-3.3-0.82-4.79-0.75-4.79-0.75s-1.35-2.82-5.42-3.81
						c-1.08-0.26-2.58-0.2-3.81,0.07c1.67,2.16,1.61,5.57-0.08,8.38c0.95-0.59,1.67-1.03,1.67-1.03S205.55,179.84,207.24,179.17z"/>
				</g>
			</g>
		</g>
	</g>
	<g class="st1">
		<path class="st3" d="M172.67,255.28c-1.47,0.38-3.94,2.17-3.53,3.4c1.15,3.46,2.31,2.04,4.21,7.2c0.9,2.44,2.85,1.77,4.48,1.9
			c1.65,0.14,2.17-1.49-0.13-3.12c-0.66-0.46-0.37-6.11-0.5-6.93c-1.52,0.1-1.62,0.12-2.08-1.9
			C174.66,253.8,172.67,255.28,172.67,255.28z"/>
	</g>
	<g class="st1">
		<path class="st3" d="M196.59,264.47c0.11,3.33-1.61,4.93,0.08,5.71c1.69,0.78,3.75-0.12,8.84,0.42c4.67,0.5,3.71-2.17,3.71-2.17
			s-3.71-1.38-6.87-3.64C201.83,264.43,196.59,264.47,196.59,264.47z"/>
	</g>
	<path class="st20" d="M190.43,214.5c0.83,5.55,5.62,6.89,5.27,10.88c-0.9,10.23-5.56,18.44-6.87,20.21
		c-1.83,2.47-10.81,15.49-10.81,15.49l-5.62-6.52c0,0,5.29-12.44,8.15-15.42c2.85-2.99,5.47-21.02,5.47-21.02L190.43,214.5z"/>
	<path class="st23" d="M183.59,214.67c-0.29,2.9-1.2,4.53-0.65,9.78c0.29,2.84,4.75,13.38,7.43,20.83c0.89,2.48,4.68,19.5,4.68,19.5
		l9.23-0.18c0,0-2.93-19.19-3.72-22.35c-1.36-5.42-3.71-16.5-3.49-18.69c0.73-7.24,0.45-8.24,0.45-8.24L183.59,214.67z"/>
	<path class="st20" d="M193.57,189.06c-0.96,2.15-3.17,3.02-2.99,6.03c0.19,3.02-4.84,12.73-6.16,16.21
		c-1.32,3.48-0.47,4.83,0.12,5.2c0.6,0.37,11.7,4.85,12.44,5.22c2.5,1.25,3.86-0.94,3.51-18.65c-0.03-1.51,0.5-2.45,0.37-3.7
		c-0.32-3.01-2.17-6.88-2.75-7.16C196.12,191.25,193.57,189.06,193.57,189.06z"/>
	<g class="st1">
		<g>
			<g>
				<path class="st5" d="M188.98,195.96c-1,2.85-3.32,11.68-4.63,15.16c-1.32,3.48-1.32,4.55-0.73,4.92c0.26,0.16,1.1,0.59,3.8,1.64
					c-0.64-1.52-2.01-2.01,4.21-18.58c1.27-3.38,0.36-1.12,0.67-3.56c0.45-3.55,1.01-4.41,3.02-5.19c-1.48-1.01-2.18-1.78-2.18-1.78
					C191.66,190.04,191.2,189.65,188.98,195.96z"/>
			</g>
		</g>
	</g>
	<path class="st23" d="M192.67,188.93l0.89-1.18c0,0,2.03,2.81,5.13,4.21c-0.13,0.76-0.22,0.92-0.22,0.92
		S196.65,192.92,192.67,188.93z"/>
	<g class="st1">
		<g>
			<g>
				<path class="st5" d="M193.63,193.32c1.4-0.85,3.5-0.8,4.84,1.43c1.51,2.51,0.12,6.43,0.79,13.04c-1.09,1.41-7.3,1.84-8.36,0.69
					c-1.06-1.15-0.53-8.88-0.41-9.93C190.6,197.52,191.96,194.34,193.63,193.32z"/>
			</g>
		</g>
	</g>
	<path class="st27" d="M191.62,201.82c0.13,4.75,1.63,12.48,1.9,15.33c0.27,2.85,3.04,7.33,3.8,11.12c0.14,0.68,0,2.04,0,2.71
		l2.71,4.48l0.41-8.54l-1.9-3.8c0,0-1.63-6.1-1.63-6.78c0-0.68,0.95-14.92,0.95-14.92L191.62,201.82z"/>
	<g class="st1">
		<path class="st18" d="M276.72,233.87c0,0.13-0.11,0.24-0.24,0.24h-71.75c-0.13,0-0.24-0.11-0.24-0.24v-9.61
			c0-0.14,0.11-0.25,0.24-0.25h71.75c0.13,0,0.24,0.11,0.24,0.25V233.87z"/>
		<path class="st18" d="M239.73,205.22c0,1.17-0.83,2.12-1.86,2.12h-28.41c-1.03,0-1.86-0.95-1.86-2.12v-16.18
			c0-1.17,0.83-2.12,1.86-2.12h28.41c1.03,0,1.86,0.95,1.86,2.12V205.22z"/>
		<path class="st18" d="M272.92,205.2c0,1.17-0.84,2.12-1.86,2.12h-28.41c-1.03,0-1.86-0.95-1.86-2.12v-16.18
			c0-1.17,0.83-2.12,1.86-2.12h28.41c1.03,0,1.86,0.95,1.86,2.12V205.2z"/>
		<path class="st25" d="M204.78,213.6l2.02-4.25c0.44-0.84,1.67-1.5,2.75-1.5h62.91c1.08,0,2.18,0.66,2.48,1.5l1.35,4.25
			L204.78,213.6z"/>
		<path class="st18" d="M240.91,221.38c0,1.09-0.85,1.97-1.9,1.97h-32.97c-1.05,0-1.9-0.88-1.9-1.97v-6.4c0-1.09,0.85-1.97,1.9-1.97
			h32.97c1.05,0,1.9,0.88,1.9,1.97V221.38z"/>
		<path class="st18" d="M276.8,221.26c0,1.09-0.82,1.97-1.84,1.97h-31.97c-1.02,0-1.84-0.88-1.84-1.97v-6.4
			c0-1.09,0.82-1.97,1.84-1.97h31.97c1.02,0,1.84,0.88,1.84,1.97V221.26z"/>
		<rect x="277.12" y="204.6" class="st8" width="4.93" height="32.76"/>
		<rect x="198.82" y="204.6" class="st8" width="4.93" height="32.76"/>
	</g>
	<path class="st27" d="M290.39,203.25c-0.82,1.4-2.17,7.68-2.55,8.74c-0.38,1.06-4.47,11.53-5.41,12.96
		c-1.66,0.44-3.05,1.67-3.05,1.67s-3.57,3.55-2.5,4.24c1.35,0.87,4.75-0.9,5.44-1.08c0.69-0.18,2.75-2.61,3.57-3.79
		c0.64-0.92,7.22-11.13,7.34-11.76c0.13-0.62,2.54-9.15,2.54-9.15S291.83,200.8,290.39,203.25z"/>
	<g class="st1">
		<g>
			<g>
				<g>
					<path class="st3" d="M296.24,194.65c-1.43-0.83-2.65-0.92-4.41,1.01c-1.98,2.17-2.5,6.42-4.47,12.8
						c0.79,1.6,7.31,2.6,8.58,1.68c1.27-0.92,2.13-9.38,2.23-10.43C298.27,198.65,298.35,195.87,296.24,194.65z"/>
				</g>
			</g>
		</g>
	</g>
</g>
<g class="st0">
	<path class="st22" d="M267.67,69.92c-1.25,1.29-2.5,3.84-2,4.92c0.5,1.08,3.67,2.5,4.67,2c1.95-0.97,0.83-3.26,0.83-3.26
		L267.67,69.92z"/>
	<path class="st22" d="M306,69.25c1.25,1.29,2.5,3.84,2,4.92c-0.5,1.08-3.67,2.5-4.67,2c-1.95-0.97-0.83-3.26-0.83-3.26L306,69.25z"
		/>
	<path class="st12" d="M276.25,47.08c-3.15,1.16-6.5,16.42-7.75,18.92c-0.83,1.65,5.43,1.02,7.25,0.75
		C276.88,66.58,276.25,47.08,276.25,47.08z"/>
	<g class="st1">
		<path class="st2" d="M282.44,123.76c0,1.37,1.37,5.64-0.27,6.74c-1.64,1.09-7.39,3.11-8.76,2.84c-1.37-0.27-3.13-1.6,0.43-4.34
			c3.56-2.74,4.5-6.33,4.5-6.33L282.44,123.76z"/>
		<path class="st3" d="M293.28,122.93c0,1.37-1.37,5.64,0.27,6.74c1.64,1.09,7.39,3.11,8.76,2.84c1.37-0.27,3.13-1.6-0.43-4.34
			c-3.56-2.74-4.5-6.33-4.5-6.33L293.28,122.93z"/>
		<path class="st4" d="M297.47,76.5c0,2,1.25,7.58,1.25,10.25s1.44,24.58,0.78,37.25c-5.33,1-8.25-0.25-8.25-0.25s1.5-29-4.5-33
			c-1.33-13.33-0.11-10-0.11-10L297.47,76.5z"/>
		<g>
			<path class="st5" d="M278.5,75.75c0,2-1.25,7.58-1.25,10.25s-1.58,26-0.92,38.67c5.33,1,7,0,7,0S283,94,289,90
				c1.33-13.33,0.33-10,0.33-10L278.5,75.75z"/>
			<g>
				<g>
					<g>
						<path class="st4" d="M285,124.25c0,0-1.5-29.75,4.5-33.75c0.66-6.56,0.62-7.5,0.42-9.05L283.82,81
							c-3.4,6.47-4.13,33.53-4.01,44.09C282.41,125.21,285,124.25,285,124.25z"/>
					</g>
				</g>
			</g>
		</g>
	</g>
	<path class="st24" d="M286.75,44.08c-3.08,0.04-11.38,2.39-11.38,4.04c0,1.66,3.24,17.33,1.4,32.96c-0.22,1.86,21.15,2.21,22.25,0
		c1.1-2.21-6.25-27.74-0.15-32.71C299.85,47.58,298.75,43.92,286.75,44.08z"/>
	<g class="st1">
		<g>
			<g>
				<path class="st3" d="M299.02,81.13c0.87-1.74-2.15-15.29-1.37-24.68c0.21-2.54,1.64-6.31,2.35-7.83
					c1.04-2.23-3.81-3.39-3.81-3.39s-4.45,5.62-2.26,37.19C296.66,82.2,298.7,81.77,299.02,81.13z"/>
			</g>
		</g>
	</g>
	<path class="st27" d="M283.88,40.72c0.41,2.18-0.54,4.59-0.07,5.53c0.47,0.94,6.09,2.23,6.87-0.71c0.22-0.84,0,0-0.95-6.16
		C289.6,38.56,283.88,40.72,283.88,40.72z"/>
	<g class="st1">
		<path class="st9" d="M290.68,45.59c0.22-0.84,0,0-0.95-6.16c-0.13-0.82-5.85,1.34-5.85,1.34c0.09,0.47,0.11,0.96,0.1,1.43
			c0.68,0.77,1.56,1.56,2.17,1.83c0.75,0.34,1.61,2.27,2.02,3.33C289.34,47.22,290.38,46.73,290.68,45.59z"/>
	</g>
	<g class="st1">
		<path class="st7" d="M291.68,35.85c0.14,4.36-3.13,7.45-4.8,7.56c-1.22,0.08-5.18-2.86-5.32-7.22c-0.15-4.36-1.72-8.1,4.48-8.55
			C292.11,27.19,291.54,31.49,291.68,35.85z"/>
		<path class="st7" d="M281.66,33.84c-0.61,0.04-1.48,0.7-0.65,2.93c0.83,2.23,1.51,0.97,1.51,0.97L281.66,33.84z"/>
	</g>
	<g class="st1">
		<g>
			<path class="st9" d="M291.75,35.92c-0.14-4.21,0.39-8.37-5.07-8.24c-0.62,2.57-0.88,5.75-0.67,9.16
				c0.15,2.39,0.52,4.64,1.05,6.62C288.76,43.23,291.89,40.19,291.75,35.92z"/>
		</g>
		<path class="st9" d="M291.29,33.54c0.61-0.04,1.55,0.51,1.02,2.83c-0.54,2.32-1.37,1.15-1.37,1.15L291.29,33.54z"/>
	</g>
	<g class="st1">
		<path class="st5" d="M289.57,26.17c-1.58-0.53-5.72-1.01-7.45,0.9c-1.73,1.91-0.9,5.24-0.9,5.24c1.28-0.82,7.71-1.7,10.62,0.44
			C292.13,29.23,291.15,26.7,289.57,26.17z M284.01,29.75c0,0,0.02-1.35,1.59-1.61c1.58-0.26,2.48,1.43,2.48,1.43L284.01,29.75z"/>
		<g>
			<g>
				<g>
					<path class="st4" d="M289.57,26.18c-0.66-0.23-1.76-0.44-2.96-0.47c-0.37,0.73-0.64,1.54-0.79,2.42
						c1.45-0.08,2.27,1.45,2.27,1.45l-2.42,0.11c-0.01,0.29,0,0.58,0.02,0.88c0.02,0.29,0.05,0.58,0.1,0.86
						c2.17-0.08,4.57,0.23,6.06,1.32C292.13,29.24,291.15,26.71,289.57,26.18z"/>
				</g>
			</g>
		</g>
	</g>
	<g class="st1">
		<path class="st3" d="M297.14,50.54c0.85-2.51,1.78-3.91,1.78-3.91c2.5,1.63,7.26,20.09,6.25,20.88c-0.8,0.62-4.41-0.31-7.17,1.17
			C296.72,69.35,295.94,54.1,297.14,50.54z"/>
		<path class="st18" d="M300.29,55.75c0.13-0.38-0.25-5.75-0.25-5.75l1.38,2l0.88-4.38l-0.25,4.13l1.5-5.38l2.5,1l-2.75,5.38
			l2.38-3.25l1,1.13L302.54,58L300.29,55.75z"/>
		<g>
			<path class="st25" d="M298.83,54.25c0.67-3.17-2.58-4.17-4.42-6.08c-0.23-0.24,0.92,4.5,2.75,6.67S298.83,54.25,298.83,54.25z"/>
			<path class="st25" d="M297.81,51.21c0.11-1.21-0.22-4.54,2.28-5.62c1.17,2.17,0.33,4.92-1,6.33
				C297.75,53.33,297.81,51.21,297.81,51.21z"/>
		</g>
		<polygon class="st9" points="289.67,67.75 294.92,51.75 307.92,56.25 302.92,67.25 		"/>
		<g>
			<path class="st18" d="M276.26,57.69c-0.1-0.3,0.2-4.57,0.2-4.57l-1.09,1.59l-0.7-3.48l0.2,3.28l-1.19-4.27l-1.99,0.79l2.18,4.27
				l-1.89-2.58l-0.79,0.89l3.28,5.86L276.26,57.69z"/>
			<polygon class="st9" points="284.7,67.23 280.53,54.51 270.2,58.09 274.17,66.83 			"/>
		</g>
		<g>
			<g>
				<g>
					<path class="st5" d="M292.54,56.49c-0.02,0.13-0.14,0.22-0.27,0.21l-1.39-0.17c-0.13-0.02-0.22-0.14-0.21-0.27l0.06-0.48
						c0.02-0.13,0.14-0.22,0.27-0.21l1.39,0.17c0.13,0.02,0.23,0.14,0.21,0.27L292.54,56.49z"/>
					<path class="st21" d="M290.69,57.54c-3.25,0.3-3.24,2.43-3.24,2.43l-0.19,1.4l0.31,0.82l-0.28,2.12l-0.53,0.8l-0.37,2.76
						c0.94,1.53,5.02,2.25,6.44,1.08l0.56-2.6l-0.28-0.63l0.55-2.91l0.51-0.54l0.23-1.14c0,0,0.68-2.01-2.29-3.35
						c0.02-0.32,0.1-0.66,0.17-0.95l-1.46-0.18C290.81,56.94,290.76,57.26,290.69,57.54z"/>
				</g>
			</g>
		</g>
		<g>
			<g>
				<g>
					<path class="st21" d="M276.18,54.39c0.01,0.13-0.07,0.25-0.17,0.26l-1.06,0.13c-0.1,0.01-0.19-0.09-0.2-0.22l-0.04-0.48
						c-0.01-0.13,0.07-0.25,0.17-0.26l1.06-0.13c0.1-0.01,0.19,0.08,0.2,0.22L276.18,54.39z"/>
					<path class="st30" d="M274.97,55.81c-2.35,0.98-2.01,2.06-2.01,2.06l0.08,1.41l0.36,0.73l0.13,4.13l-0.26,0.89l0.17,1.78
						c0.94,1.3,4.07,1.14,4.94-0.3l0-1.66l-0.3-0.55l-0.05-4.96l0.29-0.64l-0.01-1.16c0,0,0.19-1.11-2.23-1.79
						c-0.03-0.32-0.04-0.67-0.03-0.96l-1.11,0.13C274.96,55.2,274.98,55.52,274.97,55.81z"/>
				</g>
			</g>
		</g>
		<rect x="267.42" y="66" class="st7" width="38.75" height="9.5"/>
		<circle class="st6" cx="284.17" cy="62.5" r="4.25"/>
		<circle class="st11" cx="279.17" cy="63.75" r="3.25"/>
	</g>
</g>
</svg>
